<svg xmlns="http://www.w3.org/2000/svg" xmlns:xlink="http://www.w3.org/1999/xlink" width="500" zoomAndPan="magnify" viewBox="0 0 375 374.999991" height="500" preserveAspectRatio="xMidYMid meet" version="1.0"><defs><clipPath id="4566b69435"><path d="M 0 13 L 375 13 L 375 363.46875 L 0 363.46875 Z M 0 13 " clip-rule="nonzero"/></clipPath></defs><path fill="#ffffff" d="M 332.179688 114.992188 C 332.308594 110.90625 335.878906 110.265625 335.789062 105.960938 L 340.300781 105.960938 C 339.011719 110.390625 336.734375 113.832031 332.179688 114.992188 Z M 332.179688 114.992188 " fill-opacity="1" fill-rule="evenodd"/><path fill="#ffffff" d="M 83.980469 125.828125 C 87.011719 124.902344 85.382812 128.636719 85.78125 130.34375 C 84.164062 130.230469 83.878906 131.449219 82.171875 131.246094 C 81.457031 128.125 83.175781 127.433594 83.980469 125.828125 Z M 83.980469 125.828125 " fill-opacity="1" fill-rule="evenodd"/><path fill="#ffffff" d="M 116.472656 139.375 L 119.179688 139.375 C 119.554688 142.460938 118.90625 144.519531 115.566406 143.890625 C 115.28125 141.796875 115.710938 140.421875 116.472656 139.375 Z M 116.472656 139.375 " fill-opacity="1" fill-rule="evenodd"/><path fill="#ffffff" d="M 93.003906 160.144531 L 93.003906 155.628906 C 96.652344 154.992188 98.15625 156.496094 97.515625 160.144531 Z M 93.003906 160.144531 " fill-opacity="1" fill-rule="evenodd"/><path fill="#ffffff" d="M 93.003906 164.660156 C 89.167969 165.488281 89.148438 162.496094 89.394531 159.242188 L 92.101562 159.242188 C 93.140625 160.308594 93.121094 162.433594 93.003906 164.660156 Z M 93.003906 164.660156 " fill-opacity="1" fill-rule="evenodd"/><path fill="#ffffff" d="M 86.6875 165.5625 C 88.574219 165.179688 89.074219 166.179688 90.296875 166.464844 C 89.820312 167.191406 89.355469 167.933594 89.394531 169.175781 C 87.015625 169.449219 86.429688 167.925781 86.6875 165.5625 Z M 86.6875 165.5625 " fill-opacity="1" fill-rule="evenodd"/><g clip-path="url(#4566b69435)"><path fill="#ffffff" d="M 100.226562 141.183594 C 115.152344 132.035156 132.117188 117.101562 142.644531 100.546875 C 152.949219 94.597656 158.21875 83.617188 172.429688 81.582031 C 171.011719 89.035156 162.960938 91.125 157.992188 95.125 C 150.648438 101.039062 145.578125 109.136719 138.132812 114.992188 C 137.9375 118.40625 135.296875 119.378906 134.523438 122.21875 C 118.96875 132.539062 106.949219 146.402344 90.296875 155.628906 C 86.59375 158.246094 85.03125 163.003906 82.175781 166.464844 C 81.53125 168.917969 86.433594 165.820312 85.785156 168.273438 C 86.074219 170.367188 85.640625 171.738281 84.882812 172.789062 C 82.789062 172.476562 80.652344 172.203125 81.273438 169.175781 C 75.585938 177.230469 65.964844 182.191406 57.804688 189.042969 C 44.660156 200.082031 34.5625 215.082031 22.605469 229.679688 C 34.125 235.464844 25.449219 247.980469 19.898438 254.0625 C 26.984375 258.144531 36.003906 249.324219 43.363281 247.742188 C 46.621094 243.472656 52.628906 241.960938 56 237.808594 C 51.464844 234.804688 49.046875 241.660156 46.070312 243.226562 C 41.378906 242.503906 36.542969 241.921875 36.144531 236.90625 C 39.265625 236.191406 39.953125 237.910156 41.558594 238.710938 C 42.367188 235.140625 45.054688 236.882812 46.976562 236.003906 C 48.609375 232.75 46.816406 233.339844 46.070312 230.582031 C 52.398438 229.394531 56.875 226.707031 56 219.746094 C 60.410156 219.945312 61.132812 216.457031 62.316406 213.425781 C 64.699219 213.402344 67.972656 214.269531 66.832031 210.71875 C 69.761719 210.195312 71.03125 211.332031 73.148438 211.621094 C 75.378906 210.84375 72.882812 205.335938 74.953125 204.398438 C 81.125 208.386719 81.683594 198.390625 86.6875 201.6875 C 85.519531 199.011719 90.097656 199.109375 90.296875 195.367188 C 91.605469 195.863281 94.960938 194.3125 94.808594 196.269531 C 96.035156 195.992188 95.558594 194.011719 95.710938 192.660156 C 97.804688 192.371094 99.175781 192.804688 100.226562 193.5625 C 103.589844 189.589844 104.019531 187.621094 103.835938 183.628906 C 106.683594 183.1875 107.023438 185.257812 110.152344 184.53125 C 110.113281 182.988281 110.824219 182.195312 111.957031 181.824219 C 110.65625 180.417969 108.320312 180.042969 109.25 176.40625 C 111.492188 176.269531 112.996094 176.871094 113.761719 178.210938 C 115.636719 177.980469 114.007812 174.246094 115.566406 173.695312 C 116.765625 174.601562 118.925781 174.550781 119.175781 176.40625 C 120.792969 175.011719 123.699219 174.90625 122.785156 170.984375 C 126.722656 172.210938 126.050781 168.835938 128.203125 168.277344 C 131.695312 167.492188 131.414062 170.484375 133.617188 170.984375 C 134.152344 167.144531 137.195312 169.238281 135.421875 164.664062 C 139.085938 164.085938 142.457031 158.496094 146.253906 161.054688 C 145.820312 157.824219 145.726562 155.105469 146.253906 151.121094 C 149.660156 150.722656 150.492188 152.902344 152.570312 153.828125 C 151.8125 152.78125 151.378906 151.40625 151.667969 149.3125 C 154.027344 149.566406 156.183594 149.617188 155.277344 146.605469 C 157.503906 146.484375 159.628906 146.46875 160.695312 147.507812 C 162.636719 146.742188 163.886719 145.285156 163.402344 142.089844 C 166.332031 141.566406 167.601562 142.707031 169.71875 142.992188 C 173.914062 142.074219 175.351562 138.394531 178.746094 136.671875 C 179.558594 136.914062 180.664062 136.371094 181.453125 136.671875 C 186.0625 138.425781 189.375 140.828125 193.183594 142.992188 C 193.429688 138.109375 193.960938 137.613281 193.183594 133.058594 C 197.042969 130.472656 201.449219 135.683594 203.113281 135.765625 C 205.527344 135.890625 206.289062 133.472656 208.527344 133.960938 C 211.75 134.664062 215.125 135.898438 217.554688 139.378906 C 217.980469 144.019531 215.871094 146.125 211.238281 145.699219 L 211.238281 152.925781 C 209 155.09375 201.546875 155.800781 199.503906 152.925781 C 206.320312 165.371094 210.066406 180.882812 222.066406 188.144531 C 221.242188 195.292969 226.644531 196.207031 228.386719 200.785156 C 231.996094 199.28125 229.410156 191.574219 230.191406 187.242188 C 234.398438 186.042969 234.199219 189.253906 235.605469 190.855469 C 234.867188 205.371094 231.859375 213.839844 224.773438 223.363281 C 222.039062 227.039062 217.066406 229.378906 214.847656 232.394531 C 213.316406 234.472656 209.089844 242.539062 209.429688 245.035156 C 210.246094 250.96875 221.382812 255.453125 225.679688 261.292969 C 230.078125 267.277344 230.285156 271.863281 232.898438 279.351562 C 235.59375 270.910156 242.917969 267.101562 246.4375 259.488281 C 245.480469 257.132812 241.707031 257.597656 241.023438 254.972656 C 238.785156 257.195312 243.582031 256.992188 242.828125 260.390625 C 239.371094 259.945312 239.945312 263.527344 235.605469 262.195312 C 235.898438 264.308594 239.542969 263.074219 240.117188 264.902344 C 238.652344 266.75 238.808594 270.214844 235.605469 270.324219 C 233.144531 270.980469 233.789062 268.527344 231.996094 268.515625 C 233.933594 263.777344 231.742188 264.003906 231.996094 257.679688 C 236.242188 260.488281 234.148438 255.371094 238.3125 255.875 C 237.167969 253.710938 231.378906 256.191406 231.996094 252.261719 C 232.398438 247.394531 236.648438 251.671875 240.117188 249.550781 C 239.8125 247.742188 240.300781 246.726562 241.921875 246.84375 C 241.160156 245.503906 239.015625 245.539062 237.410156 245.039062 C 238.535156 241.21875 240.554688 242.992188 239.214844 237.8125 C 243.953125 237.289062 246.050781 239.40625 250.949219 238.71875 C 246.730469 237.808594 247.53125 235.984375 248.242188 231.492188 L 252.753906 231.492188 C 253.074219 230.363281 253.109375 226.609375 253.65625 223.367188 C 254.820312 222.121094 257.578125 222.472656 259.972656 222.460938 C 259.386719 221.546875 257.898438 221.527344 258.167969 219.753906 C 259.234375 218.714844 261.359375 218.734375 263.582031 218.851562 C 262.535156 216.835938 264.003906 214.585938 264.488281 209.820312 C 266.578125 209.53125 267.953125 209.964844 269 210.722656 C 268.824219 206.429688 274.070312 206.566406 271.707031 202.597656 C 276.613281 202.992188 275.257812 197.117188 280.730469 198.082031 L 280.730469 194.46875 C 283.957031 194.386719 285.609375 192.726562 286.148438 189.953125 C 290.578125 189.570312 292.984375 187.164062 293.367188 182.730469 C 298.160156 184.214844 297.789062 180.53125 298.785156 178.214844 C 300.402344 178.101562 300.6875 179.320312 302.394531 179.117188 C 309.5 173.285156 314.355469 165.199219 323.152344 161.058594 C 323.605469 156.5625 322.964844 155.675781 324.054688 152.929688 L 332.179688 152.929688 C 333.90625 148.492188 329.179688 150.511719 329.472656 147.511719 C 328.84375 143.53125 333.226562 146.023438 333.984375 145.707031 C 335.480469 145.082031 335.917969 140.894531 339.398438 142.996094 C 339.746094 135.894531 340.363281 133.207031 338.496094 127.644531 C 334.050781 127.878906 329.722656 127.996094 330.371094 123.128906 C 331.25 123.105469 331.074219 122.023438 331.277344 121.324219 C 336.40625 121.003906 339.019531 123.207031 343.910156 123.128906 C 344.355469 116.664062 336.46875 118.535156 336.691406 112.292969 C 340.382812 109.523438 343.949219 111.429688 349.328125 111.390625 C 352.15625 107.902344 357.753906 107.179688 364.667969 107.777344 C 364.964844 113.371094 363.898438 116.914062 361.960938 123.128906 C 367.203125 118.027344 369.203125 125.753906 374.597656 125.839844 C 375.023438 131.078125 371.835938 132.703125 366.476562 132.160156 C 366.335938 129.914062 367.894531 129.363281 368.28125 127.644531 C 360.507812 133.410156 357.503906 143.949219 353.839844 153.832031 C 347.640625 157.691406 347.625 164.839844 343.914062 170.085938 C 336.476562 180.597656 323.570312 185.335938 315.933594 195.375 C 314.046875 194.992188 313.542969 195.992188 312.324219 196.277344 C 296.679688 208.933594 284.535156 225.414062 268.097656 238.71875 C 264.503906 241.628906 261.535156 245.277344 258.167969 248.652344 C 258.894531 251.785156 256.824219 252.125 257.265625 254.972656 C 251.042969 261.390625 248.332031 271.320312 240.117188 275.742188 C 236.253906 289.9375 233.910156 305.652344 226.582031 316.382812 C 218.074219 318.101562 214.597656 324.859375 210.332031 330.828125 C 216.175781 330.441406 218.277344 329.863281 225.675781 329.925781 C 225.417969 334.101562 232.453125 330.972656 231.089844 336.246094 C 242.070312 335.796875 251.199219 337.199219 251.851562 347.082031 C 243.230469 349.941406 231.878906 349.835938 218.457031 349.792969 C 216.601562 350.042969 216.65625 352.203125 215.75 353.40625 C 206.765625 353.449219 200.4375 356.144531 191.378906 356.113281 C 183.742188 360.742188 162.808594 359.792969 149.863281 361.53125 C 135.804688 363.417969 122.007812 359.578125 111.953125 363.335938 C 98.042969 358.03125 83.625 361.738281 71.339844 360.628906 C 67.4375 360.277344 58.660156 358.484375 54.191406 356.113281 C 51.964844 354.9375 47.078125 352.738281 41.554688 353.40625 L 41.554688 350.699219 C 37.730469 350.011719 30.867188 352.363281 29.820312 348.890625 C 31.96875 343.335938 40.378906 347.589844 46.066406 347.988281 C 51.003906 348.332031 55.167969 347.214844 58.703125 347.988281 C 52.113281 342.367188 43.773438 341.65625 37.042969 336.246094 C 35.5625 335.058594 34.863281 332.871094 33.433594 331.734375 C 29.777344 328.824219 25.457031 327.347656 22.601562 323.605469 C 21.953125 322.757812 21.921875 320.738281 20.796875 319.09375 C 16.203125 312.359375 14.503906 300.550781 17.1875 289.292969 C 20.722656 274.445312 35.433594 265.722656 41.554688 253.167969 C 32.726562 257.277344 24.144531 261.632812 9.96875 260.394531 C 7.3125 257.632812 3.753906 255.773438 0.0390625 254.074219 C 2.832031 246.128906 8.988281 235.308594 15.382812 228.789062 C 16.875 227.265625 19.402344 226.808594 20.796875 225.175781 C 29.027344 215.558594 34.09375 202.457031 45.167969 195.375 C 43.164062 162.0625 65.070312 152.679688 70.4375 126.742188 C 76.273438 123.851562 79.75 118.601562 83.976562 114.101562 C 89.015625 113.421875 92.253906 110.941406 94.808594 107.78125 C 111.148438 102.996094 122.480469 91.828125 135.421875 81.589844 C 143.234375 75.414062 147.941406 67.695312 158.890625 62.628906 C 161.179688 61.570312 163.441406 59.488281 165.207031 59.015625 C 173.636719 56.761719 183.238281 57.585938 191.382812 55.402344 C 214.710938 49.152344 239.117188 39.597656 263.585938 31.925781 C 265.136719 31.4375 266.40625 29.796875 268.097656 29.214844 C 291.449219 21.195312 322.261719 26.34375 348.425781 17.476562 C 352.804688 15.992188 356.75 11.730469 361.964844 14.765625 C 362.617188 17.527344 361.042969 18.058594 361.0625 20.1875 C 333.292969 29.96875 301.199219 28.476562 272.609375 34.632812 C 267.503906 35.734375 261.46875 38.1875 256.363281 40.054688 C 237.925781 46.796875 218.683594 53.25 198.597656 59.015625 C 186.507812 62.488281 171.640625 59.6875 158.886719 67.144531 C 134.027344 82.304688 129.167969 117.480469 105.632812 133.96875 C 104.21875 136.746094 102.53125 139.273438 100.226562 141.183594 Z M 81.269531 126.734375 C 74.4375 133.707031 72.289062 141.480469 65.925781 152.019531 C 58.304688 164.636719 50.402344 173.136719 49.679688 189.945312 C 58.679688 183.902344 66.015625 176.191406 74.050781 169.175781 C 72.21875 167.394531 66.34375 169.664062 67.734375 164.660156 C 71.019531 164.382812 73.605469 164.804688 75.855469 165.5625 C 76.058594 163.859375 74.839844 163.570312 74.953125 161.953125 C 79.675781 161.410156 76.957031 158.710938 79.464844 155.632812 C 78.402344 155.488281 76.902344 155.785156 76.757812 154.726562 C 77.449219 151.507812 82.972656 153.121094 84.882812 151.117188 C 81.773438 151.816406 80.570312 150.613281 81.269531 147.503906 L 87.589844 147.503906 C 84.902344 141.929688 86.707031 137.683594 92.101562 135.765625 C 89.929688 133.109375 95.621094 132.695312 93.003906 128.539062 L 96.613281 128.539062 C 96.816406 126.832031 95.597656 126.550781 95.710938 124.929688 C 99.917969 126.128906 99.71875 122.917969 101.128906 121.316406 C 104.609375 121.1875 109.054688 122.023438 110.152344 119.511719 C 108.566406 118.992188 104.847656 120.601562 104.738281 118.609375 L 104.738281 115.898438 C 107.882812 116.789062 110.457031 112.128906 115.566406 112.289062 C 113.53125 110.1875 117.808594 106.746094 121.886719 107.773438 C 123.523438 103.164062 131.78125 94.289062 130.007812 92.421875 C 116.875 106.96875 95.332031 112.378906 81.269531 126.734375 Z M 360.164062 126.734375 C 360.378906 125.445312 361.648438 125.210938 361.96875 124.023438 C 360.109375 123.230469 357.917969 126.363281 360.164062 126.734375 Z M 352.941406 138.472656 C 353.691406 136.210938 355.417969 134.925781 355.648438 132.152344 C 352.550781 131.515625 350.601562 136.652344 352.941406 138.472656 Z M 180.550781 144.792969 C 180.347656 143.195312 181.460938 140.273438 178.75 141.183594 C 178.496094 143.238281 178.964844 144.578125 180.550781 144.792969 Z M 347.527344 149.308594 C 347.988281 146.757812 349.710938 145.472656 350.234375 142.988281 L 347.527344 142.988281 C 348.71875 145.785156 344.851562 147.996094 347.527344 149.308594 Z M 191.382812 149.308594 C 190.964844 147.582031 194.167969 145.421875 190.480469 145.699219 C 190.636719 147.046875 190.160156 149.03125 191.382812 149.308594 Z M 338.503906 161.046875 C 341.667969 158.777344 346.046875 152.96875 345.722656 150.210938 C 343.429688 153.9375 340.3125 156.839844 338.503906 161.046875 Z M 181.457031 160.144531 C 179.992188 160.792969 179.992188 155.886719 181.457031 156.535156 C 189.464844 159.058594 191.757812 167.300781 200.410156 169.175781 C 201.351562 164.621094 195.703125 166.660156 194.996094 163.757812 C 197.742188 160.265625 196.027344 154.8125 191.382812 153.828125 C 191.230469 155.175781 191.707031 157.160156 190.480469 157.4375 C 183.769531 156.332031 178.660156 153.613281 173.332031 151.117188 C 171.273438 155.382812 179.15625 160.429688 181.457031 160.144531 Z M 176.042969 162.855469 C 171.546875 161.332031 170.316406 156.542969 166.113281 154.726562 C 161.945312 156 160.167969 162.347656 156.183594 161.046875 C 160.945312 162.664062 171.289062 167.113281 176.042969 162.855469 Z M 327.671875 169.175781 L 327.671875 172.789062 C 321.015625 176.058594 317.53125 182.507812 308.71875 183.625 C 310.363281 188.578125 304.957031 186.484375 305.109375 189.945312 C 316.902344 184.886719 330.664062 173.976562 338.503906 161.949219 C 334.339844 163.804688 333.195312 168.683594 327.671875 169.175781 Z M 149.867188 170.980469 C 147.671875 168.800781 141.800781 178.546875 142.644531 176.402344 C 147.648438 173.28125 154.785156 172.289062 157.988281 167.371094 C 155.871094 167.082031 154.601562 165.945312 151.671875 166.464844 C 151.804688 168.707031 151.839844 170.847656 149.867188 170.980469 Z M 208.53125 183.625 C 201.996094 181.476562 196.0625 178.132812 190.480469 175.5 C 183.402344 172.152344 176.410156 173.105469 166.109375 171.886719 C 155.953125 182.191406 141.113281 187.8125 125.496094 192.65625 C 119.308594 206.035156 109.820312 216.101562 101.125 226.972656 C 136.710938 218.984375 179.804688 225.230469 204.921875 242.324219 C 207.308594 232.941406 210.542969 229.71875 215.753906 223.359375 C 219.011719 219.386719 224.082031 214.648438 225.679688 211.621094 C 226.675781 209.738281 226.390625 207.207031 227.484375 205.300781 C 219.042969 200.199219 213.652344 192.046875 208.53125 183.625 Z M 125.496094 180.914062 C 128.777344 185.691406 135.382812 178.992188 139.035156 178.207031 C 132.714844 177.320312 130.496094 183.230469 125.496094 180.914062 Z M 112.859375 196.265625 C 114.824219 192.8125 118.761719 191.335938 120.082031 187.238281 C 118.28125 186.332031 118.65625 183.242188 115.566406 183.625 C 114.917969 187.515625 112.433594 194.304688 112.859375 196.265625 Z M 301.496094 193.558594 C 303.050781 193.605469 303.8125 192.863281 304.203125 191.753906 C 302.652344 191.703125 301.890625 192.445312 301.496094 193.558594 Z M 298.789062 197.171875 C 303.429688 194.988281 295.683594 194.835938 298.789062 197.171875 Z M 83.074219 213.425781 C 92.980469 209.597656 104.339844 204.03125 111.054688 197.171875 C 102.417969 200.269531 97.960938 207.550781 86.6875 208.007812 C 86.460938 211.394531 81.484375 210.027344 81.269531 213.425781 C 77.910156 212.230469 75.203125 215.679688 72.246094 215.230469 C 75.585938 218.695312 80.050781 214.59375 83.074219 213.425781 Z M 281.640625 211.617188 C 282.261719 214.648438 280.125 214.921875 278.03125 215.230469 C 278.195312 221.089844 270.21875 221.660156 271.710938 226.066406 C 269.308594 226.671875 266.132812 226.503906 267.199219 230.582031 C 265.628906 231.417969 262.355469 230.550781 262.6875 233.292969 C 278.375 225.808594 286.398438 210.660156 296.984375 198.074219 C 288.707031 199.421875 289.617188 209.96875 281.640625 211.617188 Z M 53.289062 276.640625 C 53.339844 275.484375 54.445312 275.390625 54.195312 273.929688 C 59.59375 277.367188 60.253906 265.496094 65.023438 268.511719 C 63.929688 272.230469 60.730469 273.847656 58.707031 276.640625 C 61.539062 275.839844 67.6875 270.585938 70.441406 266.707031 C 68.535156 265.300781 65.4375 265.089844 65.023438 262.191406 C 66.171875 259.730469 68.5625 258.507812 71.339844 257.675781 C 71.484375 252.039062 80.578125 244.976562 79.464844 237.808594 L 83.074219 237.808594 C 82.445312 232.664062 84.34375 230.050781 87.585938 228.78125 C 85.175781 223.671875 89.09375 224.21875 89.390625 219.75 C 87.617188 220.019531 87.601562 218.527344 86.683594 217.941406 C 79.789062 219.617188 78.980469 223.3125 74.953125 227.875 C 73.738281 229.25 71.125 229.898438 69.535156 231.488281 C 68.070312 232.953125 67.40625 235.542969 65.925781 236.90625 C 59.300781 243.007812 51.582031 245.082031 49.679688 254.0625 C 64.539062 257.195312 52.730469 277.699219 45.167969 280.25 C 41.761719 279.140625 37.960938 278.429688 33.433594 278.445312 C 35.628906 288.050781 57.332031 283.351562 56.898438 277.542969 C 56.652344 279.671875 53.539062 277.460938 53.289062 276.640625 Z M 57.804688 236.90625 C 62.792969 231.664062 68.707031 227.34375 73.148438 221.554688 C 71.796875 221.367188 66.273438 220.785156 65.023438 221.554688 C 68.332031 228.199219 55.554688 231.320312 57.804688 236.90625 Z M 117.375 228.777344 C 119.34375 228.613281 120.246094 229.515625 120.082031 231.484375 C 108.96875 234.730469 93.640625 230.078125 92.101562 241.417969 C 101.960938 237.4375 113.8125 235.445312 126.398438 234.195312 C 130.542969 237.019531 140.273438 237.3125 144.449219 235.097656 C 137.46875 236.984375 127.910156 232.851562 136.328125 232.390625 C 150.453125 231.609375 130.179688 230.898438 132.71875 230.582031 C 132.214844 230.644531 131.652344 233.238281 130.011719 232.390625 C 129.996094 230.898438 127.507812 231.882812 127.300781 230.582031 C 129.3125 228.378906 134.023438 228.875 136.328125 226.96875 C 128.082031 227.582031 122.632812 226.242188 117.375 228.777344 Z M 188.675781 241.417969 C 184.597656 240.382812 180.328125 239.539062 179.652344 235.097656 C 174.996094 234.320312 168.261719 230.867188 165.210938 231.488281 C 169.859375 237.378906 181.566406 241.003906 188.675781 241.417969 Z M 106.542969 337.144531 C 96.832031 338.550781 83.742188 346.8125 71.339844 345.269531 C 71.070312 343.496094 72.558594 343.480469 73.148438 342.5625 L 67.730469 342.5625 C 64.632812 335.730469 56.082031 334.351562 54.195312 326.308594 C 55.238281 322.835938 62.101562 325.1875 65.925781 324.5 L 65.925781 327.210938 C 75.925781 329.601562 83.488281 332.804688 91.199219 325.402344 C 92.886719 329.359375 92.460938 326.394531 96.613281 326.308594 C 99.59375 328.105469 94.378906 330.164062 96.613281 330.820312 C 101.382812 329.273438 103.414062 324.980469 108.347656 323.597656 C 109.398438 323.75 109.328125 325.023438 109.25 326.304688 C 112.339844 326.6875 111.964844 323.601562 113.765625 322.695312 C 115.554688 327.527344 118.890625 321.445312 120.984375 325.402344 C 120.714844 327.242188 119.175781 327.808594 118.277344 329.015625 C 122.144531 329.238281 123.625 322.371094 127.300781 325.402344 C 126.675781 331.113281 117.007812 332.542969 117.375 336.238281 C 125.539062 331.464844 131.480469 324.464844 139.9375 319.984375 C 141.953125 325.351562 135.1875 326.617188 136.328125 328.109375 C 141.183594 326.046875 142.3125 320.25 148.058594 319.082031 C 149.894531 323.386719 144.460938 325.03125 146.253906 326.304688 C 152.488281 322.609375 153.921875 314.109375 161.597656 311.855469 C 163.261719 316.28125 157.851562 318.273438 159.792969 319.984375 C 163.117188 317.289062 163.378906 311.53125 168.820312 310.953125 C 168.816406 311.859375 169.550781 312.027344 169.722656 312.757812 C 169.316406 314.820312 164.734375 317.320312 167.015625 319.078125 C 171.140625 315.378906 173.457031 309.871094 178.75 307.339844 C 181.804688 309.265625 176.792969 312.257812 178.75 312.757812 C 181.453125 310.953125 181.148438 306.128906 185.066406 305.53125 C 187.773438 313.191406 175.554688 318.1875 176.039062 323.59375 C 179.96875 318.257812 183.910156 313.71875 187.773438 308.242188 C 188.863281 306.699219 188.035156 301.664062 192.285156 303.730469 C 193.050781 306.019531 189.289062 310.261719 191.382812 308.242188 C 193.523438 305.269531 196.207031 302.835938 200.40625 301.921875 C 201.496094 309.046875 194.042969 312.390625 195.894531 317.273438 C 195.480469 314.367188 198.25 314.675781 199.503906 312.757812 C 202.519531 308.148438 201.851562 300.328125 206.726562 297.410156 C 209.238281 297 206.019531 302.332031 208.53125 301.921875 C 210.195312 296.0625 211.585938 289.929688 212.140625 282.957031 C 204.59375 283.585938 210.554688 270.699219 204.921875 269.414062 C 204.78125 270.476562 205.074219 271.976562 204.019531 272.121094 C 200.296875 269.90625 201.007812 265.609375 198.601562 262.1875 C 196.015625 258.511719 188.152344 256.347656 191.382812 250.449219 C 198.046875 252.210938 199.273438 259.410156 204.019531 263.09375 C 202.128906 255.90625 194.734375 245.921875 185.0625 245.933594 C 185.316406 248.296875 184.734375 249.820312 182.355469 249.546875 C 177.28125 248.117188 171.605469 245.050781 166.109375 243.226562 C 163.707031 242.429688 158.351562 243.914062 157.988281 239.613281 C 156.886719 236.621094 165.378906 238.699219 162.5 236.90625 C 157.023438 237.714844 154.886719 235.578125 157.988281 232.390625 C 153.816406 233.511719 149.058594 230.546875 147.15625 232.390625 C 151.097656 232.988281 151.328125 235.308594 148.058594 236.90625 C 149.929688 237.441406 153.988281 235.789062 154.378906 237.808594 C 154.425781 238.964844 155.535156 239.058594 155.28125 240.519531 C 147.367188 244.324219 139.914062 237.480469 128.203125 240.519531 C 126.351562 240.265625 126.402344 238.105469 125.496094 236.90625 C 103.925781 242.414062 91.464844 257.039062 79.464844 272.125 C 67.285156 279.503906 57.695312 289.472656 38.851562 290.183594 C 32.101562 299.332031 32.148438 281.507812 28.921875 278.445312 C 24.917969 280.300781 22.789062 286.808594 21.703125 291.992188 C 18.5625 306.921875 22.421875 315.957031 29.824219 323.597656 C 36.339844 330.324219 42.652344 334.109375 50.582031 338.046875 C 59.675781 342.558594 71.816406 349.191406 82.171875 351.589844 C 82.972656 349.382812 86.570312 349.972656 87.589844 347.980469 C 83.597656 347.335938 78.9375 350.710938 75.855469 347.980469 C 83.21875 344.585938 98.050781 342.273438 106.542969 337.144531 Z M 6.355469 250.449219 C 12.710938 262.03125 21.964844 244.578125 25.308594 236.90625 C 16.640625 227.800781 11.164062 244.621094 6.355469 250.449219 Z M 252.757812 238.710938 C 255.535156 243 248.917969 242.390625 251.855469 246.839844 C 248.226562 246.707031 249.46875 249.15625 250.050781 251.351562 C 247.65625 251.367188 244.734375 250.851562 244.636719 253.160156 C 245.703125 254.199219 247.824219 254.179688 250.050781 254.0625 C 252.246094 246.324219 256.171875 240.320312 260.882812 235.097656 C 256.578125 234.703125 257.164062 239.203125 252.757812 238.710938 Z M 168.820312 239.613281 C 176.097656 243.097656 173.105469 238.285156 168.820312 239.613281 Z M 215.753906 310.050781 C 212.511719 310.558594 210.695312 310.53125 211.242188 316.375 C 214.832031 318.597656 214.613281 310.449219 218.460938 310.050781 C 227.761719 291.105469 221.726562 260.550781 207.628906 251.355469 C 219.742188 261.917969 224.976562 291.574219 215.753906 310.050781 Z M 211.242188 263.09375 C 210.332031 260.652344 207.394531 255.554688 205.824219 256.773438 C 207.996094 258.511719 208.820312 261.601562 211.242188 263.09375 Z M 35.238281 273.929688 C 38.667969 274.109375 41.660156 274.730469 44.265625 275.734375 C 48.300781 271.644531 52.539062 267.761719 53.289062 260.382812 C 44.015625 250.773438 37.839844 265.957031 35.238281 273.929688 Z M 216.65625 282.960938 C 218.8125 278.070312 215.375 271.011719 213.046875 267.609375 C 214.691406 272.085938 213.414062 280.398438 216.65625 282.960938 Z M 211.242188 273.929688 C 212.433594 271.433594 207.671875 270.828125 210.335938 272.125 C 210.269531 273.386719 210.539062 275.578125 211.242188 273.929688 Z M 203.117188 312.761719 C 203.890625 314.867188 199.960938 316.652344 202.214844 317.273438 C 207.6875 316.875 211.664062 305.871094 210.335938 304.632812 C 208.054688 307.136719 208.28125 316.042969 203.117188 312.761719 Z M 186.871094 339.851562 C 181.394531 346.714844 171.949219 349.605469 163.40625 353.398438 C 173.238281 353.355469 179.507812 348.289062 185.96875 344.367188 C 188.15625 343.039062 195.730469 340.523438 192.289062 338.949219 C 191.21875 339.988281 189.097656 339.972656 186.871094 339.851562 Z M 86.6875 353.398438 C 94.269531 353.152344 104.507812 360.152344 109.25 354.300781 C 106.9375 353.320312 104.949219 357.046875 103.835938 354.300781 C 103.730469 353.378906 107.726562 352.472656 104.738281 351.59375 C 102.148438 352.339844 96.632812 356.597656 94.808594 352.496094 C 94.566406 348.308594 106.101562 351.191406 103.835938 347.980469 C 100.117188 349.113281 90.289062 349.414062 86.6875 353.398438 Z M 152.574219 356.109375 C 154.28125 355.707031 158.015625 357.335938 157.085938 354.300781 C 154.847656 354.167969 152.707031 354.132812 152.574219 356.109375 Z M 152.574219 356.109375 " fill-opacity="1" fill-rule="evenodd"/></g></svg>