<svg xmlns="http://www.w3.org/2000/svg" xmlns:xlink="http://www.w3.org/1999/xlink" width="500" zoomAndPan="magnify" viewBox="0 0 375 374.999991" height="500" preserveAspectRatio="xMidYMid meet" version="1.0"><path fill="#ffffff" d="M 18.265625 155.835938 C 18.164062 161.390625 18.039062 166.949219 18.128906 172.503906 C 18.132812 172.960938 18.828125 172.960938 18.835938 172.503906 C 18.921875 166.949219 18.796875 161.390625 18.699219 155.835938 C 18.695312 155.554688 18.269531 155.554688 18.265625 155.835938 " fill-opacity="1" fill-rule="nonzero"/><path fill="#ffffff" d="M 21.480469 160.792969 C 21.480469 166.515625 21.222656 172.203125 20.839844 177.910156 C 20.804688 178.355469 21.480469 178.339844 21.523438 177.910156 C 22.136719 172.226562 22.179688 166.492188 21.78125 160.792969 C 21.765625 160.601562 21.480469 160.601562 21.480469 160.792969 " fill-opacity="1" fill-rule="nonzero"/><path fill="#ffffff" d="M 25.507812 167.101562 C 25.261719 173.707031 25.03125 180.308594 24.925781 186.917969 C 24.917969 187.390625 25.644531 187.390625 25.65625 186.917969 C 25.847656 180.3125 25.917969 173.710938 25.96875 167.101562 C 25.96875 166.804688 25.519531 166.804688 25.507812 167.101562 " fill-opacity="1" fill-rule="nonzero"/><path fill="#ffffff" d="M 29.128906 175.65625 C 28.71875 181.5 28.628906 187.371094 28.515625 193.222656 C 28.503906 193.699219 29.234375 193.695312 29.246094 193.222656 C 29.429688 187.375 29.640625 181.507812 29.519531 175.65625 C 29.515625 175.40625 29.148438 175.410156 29.128906 175.65625 " fill-opacity="1" fill-rule="nonzero"/><path fill="#ffffff" d="M 33.109375 181.0625 C 33.429688 188.304688 33.210938 195.464844 32.503906 202.679688 C 32.460938 203.121094 33.140625 203.113281 33.191406 202.679688 C 34.027344 195.5 34.128906 188.261719 33.546875 181.0625 C 33.523438 180.785156 33.097656 180.777344 33.109375 181.0625 " fill-opacity="1" fill-rule="nonzero"/><path fill="#ffffff" d="M 38.058594 190.96875 C 37.671875 196.824219 37.285156 202.679688 37.015625 208.539062 C 36.992188 209.015625 37.734375 209.015625 37.757812 208.539062 C 38.089844 202.6875 38.304688 196.828125 38.515625 190.96875 C 38.527344 190.675781 38.078125 190.679688 38.058594 190.96875 " fill-opacity="1" fill-rule="nonzero"/><path fill="#ffffff" d="M 42.992188 197.730469 C 42.335938 202.800781 41.835938 207.875 40.996094 212.925781 C 40.90625 213.457031 41.710938 213.691406 41.8125 213.148438 C 42.75 208.09375 43.519531 202.878906 43.5625 197.730469 C 43.570312 197.347656 43.039062 197.375 42.992188 197.730469 " fill-opacity="1" fill-rule="nonzero"/><path fill="#ffffff" d="M 77.613281 227.90625 C 77.796875 233.320312 77.417969 238.675781 76.660156 244.035156 C 76.605469 244.449219 77.230469 244.636719 77.300781 244.210938 C 78.210938 238.800781 78.414062 233.382812 78.105469 227.90625 C 78.089844 227.589844 77.601562 227.589844 77.613281 227.90625 " fill-opacity="1" fill-rule="nonzero"/><path fill="#ffffff" d="M 81.726562 232.410156 C 81.574219 236.011719 81.347656 239.617188 81.308594 243.222656 C 81.304688 243.472656 81.679688 243.46875 81.699219 243.222656 C 81.960938 239.625 82.03125 236.011719 82.171875 232.410156 C 82.183594 232.125 81.742188 232.125 81.726562 232.410156 " fill-opacity="1" fill-rule="nonzero"/><path fill="#ffffff" d="M 86.632812 226.554688 C 86.414062 230.757812 86.179688 234.960938 86.054688 239.167969 C 86.039062 239.632812 86.757812 239.628906 86.777344 239.167969 C 86.949219 234.964844 87.023438 230.757812 87.101562 226.554688 C 87.109375 226.25 86.648438 226.253906 86.632812 226.554688 " fill-opacity="1" fill-rule="nonzero"/><path fill="#ffffff" d="M 89.746094 226.109375 C 90.390625 232.007812 90.4375 237.75 90.066406 243.667969 C 90.035156 244.15625 90.75 244.128906 90.808594 243.667969 C 91.554688 237.832031 91.285156 231.828125 90.183594 226.050781 C 90.140625 225.804688 89.71875 225.859375 89.746094 226.109375 " fill-opacity="1" fill-rule="nonzero"/><path fill="#ffffff" d="M 94.269531 227.90625 C 94.378906 231.675781 94.171875 235.417969 93.800781 239.167969 C 93.773438 239.457031 94.277344 239.53125 94.316406 239.238281 C 94.824219 235.472656 94.925781 231.699219 94.761719 227.90625 C 94.746094 227.589844 94.261719 227.589844 94.269531 227.90625 " fill-opacity="1" fill-rule="nonzero"/><path fill="#ffffff" d="M 98.339844 225.65625 C 98 229.40625 97.589844 233.160156 97.367188 236.917969 C 97.339844 237.347656 97.988281 237.335938 98.03125 236.917969 C 98.417969 233.175781 98.617188 229.410156 98.890625 225.65625 C 98.910156 225.300781 98.371094 225.308594 98.339844 225.65625 " fill-opacity="1" fill-rule="nonzero"/><path fill="#ffffff" d="M 7.273438 130.539062 C 6.886719 134.445312 6.609375 138.363281 6.308594 142.277344 C 6.265625 142.8125 7.109375 142.816406 7.144531 142.277344 C 7.367188 138.367188 7.613281 134.453125 7.753906 130.539062 C 7.765625 130.222656 7.304688 130.234375 7.273438 130.539062 " fill-opacity="1" fill-rule="nonzero"/><path fill="#ffffff" d="M 15.667969 106.300781 C 16.347656 113.136719 17.121094 119.738281 17.261719 126.621094 C 17.277344 127.195312 18.132812 127.195312 18.15625 126.621094 C 18.4375 119.964844 17.957031 112.675781 16.117188 106.242188 C 16.046875 106 15.640625 106.035156 15.667969 106.300781 " fill-opacity="1" fill-rule="nonzero"/><path fill="#ffffff" d="M 26.355469 101.964844 C 26.363281 104.949219 26.433594 107.988281 26.695312 110.960938 C 26.734375 111.417969 27.417969 111.433594 27.414062 110.960938 C 27.386719 107.972656 27.167969 104.941406 26.882812 101.964844 C 26.851562 101.632812 26.355469 101.617188 26.355469 101.964844 " fill-opacity="1" fill-rule="nonzero"/><path fill="#ffffff" d="M 32.277344 101.570312 C 32.292969 104.128906 32.585938 106.648438 33.34375 109.09375 C 33.445312 109.425781 33.953125 109.289062 33.863281 108.949219 C 33.230469 106.519531 32.777344 104.085938 32.679688 101.570312 C 32.671875 101.316406 32.277344 101.3125 32.277344 101.570312 " fill-opacity="1" fill-rule="nonzero"/><path fill="#ffffff" d="M 41.558594 99.695312 C 41.800781 101.398438 42.023438 103.101562 42.308594 104.796875 C 42.378906 105.242188 43.046875 105.050781 42.980469 104.613281 C 42.714844 102.917969 42.394531 101.234375 42.089844 99.546875 C 42.027344 99.195312 41.511719 99.351562 41.558594 99.695312 " fill-opacity="1" fill-rule="nonzero"/><path fill="#ffffff" d="M 50.917969 95.316406 C 51.011719 96.878906 51.097656 98.449219 51.207031 100.011719 C 51.246094 100.511719 52.042969 100.503906 51.988281 100.011719 C 51.816406 98.441406 51.625 96.878906 51.433594 95.316406 C 51.398438 94.996094 50.898438 94.976562 50.917969 95.316406 " fill-opacity="1" fill-rule="nonzero"/><path fill="#ffffff" d="M 146.832031 58.527344 C 146.527344 61.785156 146.167969 65.042969 145.992188 68.308594 C 145.96875 68.699219 146.546875 68.683594 146.585938 68.308594 C 146.933594 65.058594 147.105469 61.789062 147.324219 58.527344 C 147.347656 58.207031 146.859375 58.214844 146.832031 58.527344 " fill-opacity="1" fill-rule="nonzero"/><path fill="#ffffff" d="M 141.648438 63.609375 C 141.785156 65.046875 141.632812 66.445312 141.285156 67.84375 C 141.195312 68.199219 141.726562 68.34375 141.839844 67.996094 C 142.296875 66.5625 142.386719 65.101562 142.210938 63.609375 C 142.167969 63.257812 141.613281 63.246094 141.648438 63.609375 " fill-opacity="1" fill-rule="nonzero"/><path fill="#ffffff" d="M 136.441406 66.347656 C 136.523438 67.511719 136.398438 68.640625 136.0625 69.757812 C 135.90625 70.277344 136.714844 70.496094 136.871094 69.984375 C 137.222656 68.796875 137.363281 67.585938 137.277344 66.347656 C 137.234375 65.8125 136.398438 65.8125 136.441406 66.347656 " fill-opacity="1" fill-rule="nonzero"/><path fill="#ffffff" d="M 161.578125 51.480469 C 161.277344 55.390625 160.972656 59.304688 160.671875 63.21875 C 160.628906 63.769531 161.496094 63.769531 161.53125 63.21875 C 161.785156 59.304688 162.035156 55.390625 162.289062 51.480469 C 162.316406 51.023438 161.613281 51.027344 161.578125 51.480469 " fill-opacity="1" fill-rule="nonzero"/><path fill="#ffffff" d="M 176.875 60.089844 C 176.433594 64.273438 175.742188 68.40625 174.757812 72.5 C 174.628906 73.023438 175.445312 73.242188 175.5625 72.71875 C 176.492188 68.546875 177.125 64.351562 177.433594 60.089844 C 177.460938 59.722656 176.910156 59.734375 176.875 60.089844 " fill-opacity="1" fill-rule="nonzero"/><path fill="#ffffff" d="M 188.667969 71.8125 C 188.144531 73.800781 188.023438 75.886719 187.535156 77.894531 C 187.039062 79.910156 186.382812 81.886719 185.632812 83.8125 C 185.441406 84.308594 186.21875 84.503906 186.414062 84.03125 C 187.933594 80.414062 189.414062 75.832031 188.90625 71.84375 C 188.890625 71.71875 188.707031 71.671875 188.667969 71.8125 " fill-opacity="1" fill-rule="nonzero"/><path fill="#ffffff" d="M 201.082031 76.839844 C 199.738281 81.773438 198.285156 86.71875 197.242188 91.730469 C 197.152344 92.164062 197.789062 92.347656 197.914062 91.910156 C 199.351562 87.003906 200.394531 81.953125 201.53125 76.964844 C 201.597656 76.671875 201.160156 76.546875 201.082031 76.839844 " fill-opacity="1" fill-rule="nonzero"/><path fill="#ffffff" d="M 206.320312 88.621094 C 205.363281 91.707031 204.566406 94.832031 203.792969 97.96875 C 203.683594 98.417969 204.378906 98.609375 204.492188 98.15625 C 205.273438 95.023438 206.03125 91.882812 206.621094 88.707031 C 206.65625 88.511719 206.382812 88.429688 206.320312 88.621094 " fill-opacity="1" fill-rule="nonzero"/><path fill="#ffffff" d="M 233.722656 131.578125 C 232.144531 136.703125 230.179688 141.609375 228.15625 146.566406 C 227.984375 146.988281 228.691406 147.285156 228.886719 146.878906 C 231.226562 142.070312 232.914062 136.894531 234.226562 131.714844 C 234.3125 131.386719 233.820312 131.25 233.722656 131.578125 " fill-opacity="1" fill-rule="nonzero"/><path fill="#ffffff" d="M 66.597656 223.683594 C 66.316406 229.175781 65.757812 234.574219 64.964844 240.019531 C 64.894531 240.488281 65.589844 240.710938 65.691406 240.222656 C 66.820312 234.804688 67.289062 229.214844 67.148438 223.683594 C 67.140625 223.324219 66.613281 223.328125 66.597656 223.683594 " fill-opacity="1" fill-rule="nonzero"/><path fill="#ffffff" d="M 61.550781 221.726562 C 61.457031 225.265625 61.136719 228.78125 60.671875 232.292969 C 60.625 232.671875 61.296875 232.765625 61.347656 232.382812 C 61.832031 228.84375 62.042969 225.296875 62.042969 221.726562 C 62.046875 221.40625 61.5625 221.40625 61.550781 221.726562 " fill-opacity="1" fill-rule="nonzero"/><path fill="#ffffff" d="M 44.289062 152.328125 C 42.285156 157.503906 39.8125 162.394531 37.410156 167.386719 C 37.222656 167.777344 37.769531 168.109375 37.992188 167.730469 C 40.8125 162.941406 42.902344 157.6875 44.761719 152.457031 C 44.871094 152.15625 44.398438 152.035156 44.289062 152.328125 " fill-opacity="1" fill-rule="nonzero"/><path fill="#ffffff" d="M 63.0625 145.289062 C 57.984375 156.714844 52.835938 168.125 48 179.652344 C 47.820312 180.085938 48.570312 180.410156 48.765625 179.976562 C 53.863281 168.558594 58.660156 157 63.511719 145.480469 C 63.621094 145.226562 63.175781 145.035156 63.0625 145.289062 " fill-opacity="1" fill-rule="nonzero"/><path fill="#ffffff" d="M 82.191406 138.953125 C 72.980469 159.460938 63.371094 179.882812 54.800781 200.671875 C 54.605469 201.140625 55.40625 201.480469 55.625 201.019531 C 65.222656 180.722656 73.84375 159.898438 82.804688 139.308594 C 82.984375 138.898438 82.378906 138.53125 82.191406 138.953125 " fill-opacity="1" fill-rule="nonzero"/><path fill="#ffffff" d="M 88.007812 169.257812 C 81.386719 183.964844 74.355469 198.558594 68.175781 213.457031 C 68.007812 213.855469 68.691406 214.144531 68.875 213.753906 C 75.847656 199.238281 82.023438 184.292969 88.554688 169.574219 C 88.714844 169.207031 88.179688 168.886719 88.007812 169.257812 " fill-opacity="1" fill-rule="nonzero"/><path fill="#ffffff" d="M 114.800781 160.910156 C 106.582031 179.769531 97.46875 198.347656 89.746094 217.414062 C 89.5625 217.878906 90.332031 218.199219 90.554688 217.757812 C 99.746094 199.425781 107.367188 180.121094 115.410156 161.265625 C 115.589844 160.851562 114.984375 160.488281 114.800781 160.910156 " fill-opacity="1" fill-rule="nonzero"/><path fill="#ffffff" d="M 131.0625 174.644531 C 123.234375 187.679688 115.292969 200.648438 107.675781 213.804688 C 107.390625 214.292969 108.132812 214.722656 108.425781 214.242188 C 116.375 201.285156 124.011719 188.132812 131.753906 175.050781 C 132.019531 174.605469 131.328125 174.203125 131.0625 174.644531 " fill-opacity="1" fill-rule="nonzero"/><path fill="#ffffff" d="M 111.042969 235.65625 C 112.683594 240.355469 115.027344 244.902344 118.023438 248.878906 C 118.273438 249.210938 118.835938 248.910156 118.597656 248.542969 C 115.832031 244.34375 113.472656 240.09375 111.503906 235.460938 C 111.390625 235.199219 110.945312 235.386719 111.042969 235.65625 " fill-opacity="1" fill-rule="nonzero"/><path fill="#ffffff" d="M 116.570312 237.140625 C 119.371094 242.335938 122.046875 247.613281 124.875 252.792969 C 125.078125 253.164062 125.585938 252.835938 125.425781 252.46875 C 123.105469 247.089844 120.132812 241.828125 116.996094 236.890625 C 116.824219 236.625 116.417969 236.859375 116.570312 237.140625 " fill-opacity="1" fill-rule="nonzero"/><path fill="#ffffff" d="M 124.507812 240.496094 C 127.203125 245.515625 129.59375 250.667969 132.148438 255.757812 C 132.386719 256.234375 133.058594 255.820312 132.851562 255.347656 C 130.574219 250.152344 127.773438 245.152344 124.953125 240.234375 C 124.789062 239.945312 124.351562 240.203125 124.507812 240.496094 " fill-opacity="1" fill-rule="nonzero"/><path fill="#ffffff" d="M 133.265625 245.882812 C 135.746094 249.527344 138.398438 253.152344 141.449219 256.347656 C 141.78125 256.691406 142.265625 256.183594 141.964844 255.828125 C 139.152344 252.464844 136.328125 249.160156 133.789062 245.574219 C 133.566406 245.257812 133.046875 245.554688 133.265625 245.882812 " fill-opacity="1" fill-rule="nonzero"/><path fill="#ffffff" d="M 140.890625 246.007812 C 143.796875 249.972656 146.625 254.011719 149.699219 257.851562 C 149.945312 258.164062 150.480469 257.753906 150.253906 257.421875 C 147.480469 253.398438 144.445312 249.550781 141.507812 245.648438 C 141.234375 245.292969 140.617188 245.636719 140.890625 246.007812 " fill-opacity="1" fill-rule="nonzero"/><path fill="#ffffff" d="M 147.8125 246.070312 C 151.066406 250.085938 154.5625 254.011719 158.503906 257.367188 C 158.929688 257.734375 159.539062 257.148438 159.125 256.746094 C 155.394531 253.117188 151.722656 249.503906 148.390625 245.488281 C 148.050781 245.078125 147.480469 245.664062 147.8125 246.070312 " fill-opacity="1" fill-rule="nonzero"/><path fill="#ffffff" d="M 156.570312 244.632812 C 159.675781 247.863281 162.078125 251.449219 164.410156 255.253906 C 164.703125 255.726562 165.402344 255.3125 165.152344 254.820312 C 163.15625 250.839844 160.21875 247.253906 157.097656 244.105469 C 156.757812 243.765625 156.238281 244.289062 156.570312 244.632812 " fill-opacity="1" fill-rule="nonzero"/><path fill="#ffffff" d="M 163.019531 239.644531 C 164.722656 241.5 166.269531 243.472656 167.664062 245.570312 C 168.019531 246.097656 168.882812 245.585938 168.519531 245.070312 C 167.023438 242.953125 165.375 240.957031 163.574219 239.09375 C 163.222656 238.730469 162.6875 239.277344 163.019531 239.644531 " fill-opacity="1" fill-rule="nonzero"/><path fill="#ffffff" d="M 166.730469 270.96875 C 169.109375 275.695312 171.3125 280.628906 174.070312 285.148438 C 174.378906 285.65625 175.082031 285.210938 174.851562 284.691406 C 172.710938 279.847656 169.914062 275.230469 167.390625 270.582031 C 167.152344 270.144531 166.507812 270.53125 166.730469 270.96875 " fill-opacity="1" fill-rule="nonzero"/><path fill="#ffffff" d="M 174.519531 275.394531 C 177.601562 279.960938 180.605469 284.597656 183.832031 289.0625 C 184.175781 289.539062 184.960938 289.105469 184.632812 288.597656 C 181.648438 283.964844 178.417969 279.480469 175.289062 274.941406 C 174.964844 274.476562 174.191406 274.914062 174.519531 275.394531 " fill-opacity="1" fill-rule="nonzero"/><path fill="#ffffff" d="M 184.882812 277.761719 C 188.023438 281.953125 191.375 286 195.097656 289.683594 C 195.542969 290.128906 196.214844 289.453125 195.785156 288.996094 C 192.230469 285.246094 188.789062 281.421875 185.632812 277.324219 C 185.296875 276.886719 184.542969 277.3125 184.882812 277.761719 " fill-opacity="1" fill-rule="nonzero"/><path fill="#ffffff" d="M 195.796875 278.230469 C 198.820312 282.042969 201.789062 285.910156 204.898438 289.648438 C 205.246094 290.0625 205.820312 289.46875 205.488281 289.054688 C 202.457031 285.265625 199.273438 281.59375 196.152344 277.875 C 195.941406 277.625 195.601562 277.984375 195.796875 278.230469 " fill-opacity="1" fill-rule="nonzero"/><path fill="#ffffff" d="M 205.605469 278.148438 C 207.699219 282.253906 210.53125 285.871094 214.144531 288.742188 C 214.492188 289.019531 214.988281 288.535156 214.640625 288.246094 C 211.128906 285.335938 208.203125 281.921875 206.027344 277.898438 C 205.875 277.621094 205.457031 277.867188 205.605469 278.148438 " fill-opacity="1" fill-rule="nonzero"/><path fill="#ffffff" d="M 214.664062 275.828125 C 216.890625 279.488281 219.691406 282.660156 223.097656 285.261719 C 223.40625 285.496094 223.816406 284.964844 223.511719 284.722656 C 220.246094 282.113281 217.457031 279.039062 215.253906 275.480469 C 215.023438 275.101562 214.433594 275.445312 214.664062 275.828125 " fill-opacity="1" fill-rule="nonzero"/><path fill="#ffffff" d="M 224.964844 274.460938 C 227.664062 276.71875 229.742188 279.335938 231.859375 282.125 C 232.128906 282.480469 232.714844 282.175781 232.480469 281.757812 C 230.765625 278.726562 228.171875 276.121094 225.5 273.925781 C 225.125 273.621094 224.589844 274.144531 224.964844 274.460938 " fill-opacity="1" fill-rule="nonzero"/><path fill="#ffffff" d="M 240.207031 243.953125 C 241.402344 245.941406 243.019531 247.855469 244.570312 249.582031 C 244.847656 249.894531 245.414062 249.472656 245.160156 249.121094 C 243.796875 247.238281 242.28125 245.257812 240.582031 243.660156 C 240.386719 243.476562 240.0625 243.710938 240.207031 243.953125 " fill-opacity="1" fill-rule="nonzero"/><path fill="#ffffff" d="M 247.609375 245.761719 C 252.078125 251.148438 256.125 256.816406 259.804688 262.769531 C 260.121094 263.289062 260.941406 262.8125 260.621094 262.289062 C 256.925781 256.265625 252.746094 250.59375 248.113281 245.257812 C 247.808594 244.910156 247.320312 245.414062 247.609375 245.761719 " fill-opacity="1" fill-rule="nonzero"/><path fill="#ffffff" d="M 259.09375 249.917969 C 261.515625 254.136719 264.152344 258.332031 267.289062 262.058594 C 267.621094 262.449219 268.316406 261.921875 268.007812 261.5 C 265.140625 257.574219 262.289062 253.699219 259.804688 249.503906 C 259.535156 249.046875 258.828125 249.457031 259.09375 249.917969 " fill-opacity="1" fill-rule="nonzero"/><path fill="#ffffff" d="M 269.328125 253.238281 C 271.144531 255.820312 272.941406 258.410156 274.832031 260.9375 C 275.121094 261.324219 275.773438 260.964844 275.496094 260.550781 C 273.71875 257.941406 271.855469 255.398438 270.007812 252.839844 C 269.714844 252.433594 269.03125 252.820312 269.328125 253.238281 " fill-opacity="1" fill-rule="nonzero"/><path fill="#ffffff" d="M 278.191406 252.953125 C 279.761719 254.664062 281.257812 256.507812 282.980469 258.0625 C 283.375 258.417969 283.855469 257.894531 283.546875 257.496094 C 282.125 255.660156 280.398438 254.027344 278.808594 252.335938 C 278.425781 251.925781 277.816406 252.539062 278.191406 252.953125 " fill-opacity="1" fill-rule="nonzero"/><path fill="#ffffff" d="M 284.085938 248.765625 C 286.007812 251.269531 287.871094 253.84375 289.910156 256.257812 C 290.214844 256.617188 290.851562 256.132812 290.566406 255.75 C 288.699219 253.195312 286.640625 250.785156 284.652344 248.324219 C 284.398438 248.011719 283.835938 248.4375 284.085938 248.765625 " fill-opacity="1" fill-rule="nonzero"/><path fill="#ffffff" d="M 299.886719 221.53125 C 300.933594 224.273438 302.207031 226.90625 303.847656 229.34375 C 304.09375 229.707031 304.675781 229.378906 304.441406 229 C 302.933594 226.515625 301.515625 223.996094 300.324219 221.347656 C 300.214844 221.101562 299.789062 221.277344 299.886719 221.53125 " fill-opacity="1" fill-rule="nonzero"/><path fill="#ffffff" d="M 306.183594 222.726562 C 308.214844 225.015625 309.691406 227.503906 310.761719 230.363281 C 310.925781 230.8125 311.632812 230.636719 311.488281 230.164062 C 310.578125 227.171875 308.859375 224.46875 306.558594 222.355469 C 306.304688 222.125 305.960938 222.472656 306.183594 222.726562 " fill-opacity="1" fill-rule="nonzero"/><path fill="#ffffff" d="M 316.828125 227.789062 C 318.554688 231.695312 320.90625 235.355469 323.632812 238.632812 C 323.953125 239.023438 324.484375 238.472656 324.183594 238.085938 C 321.558594 234.742188 319.296875 231.261719 317.179688 227.582031 C 317.046875 227.347656 316.71875 227.554688 316.828125 227.789062 " fill-opacity="1" fill-rule="nonzero"/><path fill="#ffffff" d="M 329.140625 232.269531 C 330.695312 234.492188 332.226562 236.730469 333.855469 238.902344 C 334.136719 239.277344 334.773438 238.929688 334.496094 238.527344 C 332.96875 236.285156 331.335938 234.109375 329.742188 231.917969 C 329.480469 231.558594 328.878906 231.902344 329.140625 232.269531 " fill-opacity="1" fill-rule="nonzero"/><path fill="#ffffff" d="M 338.300781 229.085938 C 339.882812 230.804688 341.457031 232.527344 343.082031 234.203125 C 343.421875 234.546875 343.925781 234.03125 343.609375 233.675781 C 342.0625 231.921875 340.460938 230.226562 338.867188 228.519531 C 338.511719 228.140625 337.953125 228.707031 338.300781 229.085938 " fill-opacity="1" fill-rule="nonzero"/><path fill="#ffffff" d="M 346.773438 228.675781 C 348.265625 229.96875 349.550781 231.4375 350.710938 233.03125 C 350.992188 233.417969 351.636719 233.058594 351.363281 232.648438 C 350.222656 230.964844 348.820312 229.488281 347.257812 228.1875 C 346.921875 227.910156 346.433594 228.382812 346.773438 228.675781 " fill-opacity="1" fill-rule="nonzero"/><path fill="#ffffff" d="M 245.996094 180.550781 C 248.394531 184.464844 250.171875 188.53125 251.402344 192.960938 C 251.5625 193.546875 252.472656 193.300781 252.316406 192.707031 C 251.132812 188.242188 249.152344 184.027344 246.460938 180.277344 C 246.261719 180 245.8125 180.25 245.996094 180.550781 " fill-opacity="1" fill-rule="nonzero"/><path fill="#ffffff" d="M 278.5625 185.453125 C 279.984375 189.359375 281.882812 193.519531 283.902344 197.144531 C 284.105469 197.511719 284.734375 197.265625 284.59375 196.851562 C 283.253906 192.96875 281.148438 188.738281 278.855469 185.332031 C 278.761719 185.191406 278.496094 185.273438 278.5625 185.453125 " fill-opacity="1" fill-rule="nonzero"/><path fill="#ffffff" d="M 285.179688 183.492188 C 286.121094 185.34375 287.03125 187.21875 288.058594 189.023438 C 288.320312 189.484375 288.984375 189.078125 288.761719 188.613281 C 287.867188 186.734375 286.851562 184.917969 285.871094 183.085938 C 285.628906 182.628906 284.949219 183.035156 285.179688 183.492188 " fill-opacity="1" fill-rule="nonzero"/><path fill="#ffffff" d="M 290.636719 179.84375 C 291.335938 181.207031 292.023438 182.574219 292.746094 183.925781 C 293 184.410156 293.730469 183.980469 293.472656 183.5 C 292.753906 182.152344 292.007812 180.816406 291.265625 179.472656 C 291.039062 179.058594 290.417969 179.425781 290.636719 179.84375 " fill-opacity="1" fill-rule="nonzero"/><path fill="#ffffff" d="M 186.039062 202.0625 C 188.273438 208.570312 190.921875 215.285156 194.296875 221.289062 C 194.597656 221.816406 195.34375 221.351562 195.097656 220.820312 C 192.203125 214.496094 189.121094 208.320312 186.402344 201.90625 C 186.316406 201.703125 185.964844 201.851562 186.039062 202.0625 " fill-opacity="1" fill-rule="nonzero"/><path fill="#ffffff" d="M 217.949219 213.082031 C 218.714844 214.570312 219.609375 215.984375 220.355469 217.488281 C 221.097656 218.984375 221.640625 220.589844 222.4375 222.050781 C 222.667969 222.46875 223.324219 222.183594 223.203125 221.726562 C 222.371094 218.640625 220.359375 215.242188 218.363281 212.765625 C 218.164062 212.523438 217.820312 212.832031 217.949219 213.082031 " fill-opacity="1" fill-rule="nonzero"/><path fill="#ffffff" d="M 223.210938 202.585938 C 224.726562 205.917969 226.183594 209.292969 227.882812 212.539062 C 228.117188 212.984375 228.738281 212.59375 228.546875 212.152344 C 227.082031 208.796875 225.367188 205.554688 223.714844 202.289062 C 223.542969 201.949219 223.058594 202.246094 223.210938 202.585938 " fill-opacity="1" fill-rule="nonzero"/><path fill="#ffffff" d="M 231.722656 200.34375 C 232.621094 202.34375 233.558594 204.324219 234.503906 206.296875 C 234.75 206.8125 235.53125 206.359375 235.277344 205.84375 C 234.300781 203.890625 233.3125 201.941406 232.289062 200.015625 C 232.085938 199.636719 231.554688 199.96875 231.722656 200.34375 " fill-opacity="1" fill-rule="nonzero"/><path fill="#ffffff" d="M 133.035156 290.828125 C 132.175781 284.449219 130.628906 277.703125 128.328125 271.691406 C 128.15625 271.246094 127.472656 271.414062 127.597656 271.894531 C 128.503906 275.351562 129.636719 278.746094 130.539062 282.210938 C 131.269531 285.027344 131.484375 288.339844 132.929688 290.871094 C 132.964844 290.933594 133.046875 290.890625 133.035156 290.828125 " fill-opacity="1" fill-rule="nonzero"/><path fill="#ffffff" d="M 121.25 289.257812 C 118.988281 280.363281 116.777344 271.449219 114.46875 262.566406 C 114.363281 262.171875 113.777344 262.339844 113.859375 262.734375 C 115.722656 271.6875 118.203125 280.628906 121.0625 289.308594 C 121.101562 289.425781 121.277344 289.382812 121.25 289.257812 " fill-opacity="1" fill-rule="nonzero"/><path fill="#ffffff" d="M 138.015625 294.0625 C 137.757812 288.269531 136.621094 282.425781 135.070312 276.855469 C 134.96875 276.476562 134.402344 276.632812 134.488281 277.015625 C 135.789062 282.6875 136.726562 288.371094 137.714844 294.101562 C 137.746094 294.273438 138.027344 294.234375 138.015625 294.0625 " fill-opacity="1" fill-rule="nonzero"/><path fill="#ffffff" d="M 148.582031 297.351562 C 148.640625 291.953125 148.347656 286.554688 147.542969 281.214844 C 147.496094 280.90625 146.957031 280.972656 146.992188 281.289062 C 147.554688 286.640625 148.035156 291.976562 148.261719 297.351562 C 148.269531 297.558594 148.578125 297.558594 148.582031 297.351562 " fill-opacity="1" fill-rule="nonzero"/><path fill="#ffffff" d="M 152.589844 296.675781 C 153.253906 292.039062 153.972656 287.402344 154.429688 282.738281 C 154.457031 282.453125 153.96875 282.382812 153.925781 282.671875 C 153.191406 287.296875 152.71875 291.964844 152.195312 296.621094 C 152.171875 296.84375 152.558594 296.898438 152.589844 296.675781 " fill-opacity="1" fill-rule="nonzero"/><path fill="#ffffff" d="M 159.757812 308.429688 C 161.378906 304.054688 162.472656 299.480469 163.300781 294.890625 C 163.394531 294.382812 162.617188 294.160156 162.515625 294.675781 C 161.617188 299.269531 160.429688 303.761719 159.238281 308.289062 C 159.148438 308.628906 159.636719 308.753906 159.757812 308.429688 " fill-opacity="1" fill-rule="nonzero"/><path fill="#ffffff" d="M 173.589844 321.777344 C 172.351562 312.441406 170.1875 302.574219 167.214844 293.640625 C 167.042969 293.136719 166.304688 293.339844 166.417969 293.859375 C 168.40625 303.171875 170.757812 312.621094 173.199219 321.828125 C 173.253906 322.042969 173.621094 322.007812 173.589844 321.777344 " fill-opacity="1" fill-rule="nonzero"/><path fill="#ffffff" d="M 182.140625 318.164062 C 181.492188 312.109375 180.429688 306.003906 178.757812 300.148438 C 178.613281 299.644531 177.847656 299.851562 177.976562 300.363281 C 179.433594 306.300781 180.761719 312.183594 181.757812 318.214844 C 181.792969 318.429688 182.164062 318.382812 182.140625 318.164062 " fill-opacity="1" fill-rule="nonzero"/><path fill="#ffffff" d="M 189.601562 322.164062 C 188.996094 315.4375 188.011719 308.617188 186.605469 302.011719 C 186.496094 301.496094 185.753906 301.726562 185.832031 302.226562 C 186.855469 308.898438 187.980469 315.578125 189.117188 322.230469 C 189.164062 322.503906 189.625 322.441406 189.601562 322.164062 " fill-opacity="1" fill-rule="nonzero"/><path fill="#ffffff" d="M 196.234375 321.105469 C 195.769531 315.476562 195.320312 309.757812 194.402344 304.183594 C 194.339844 303.777344 193.652344 303.871094 193.683594 304.28125 C 194.074219 309.914062 194.953125 315.582031 195.796875 321.164062 C 195.832031 321.410156 196.253906 321.355469 196.234375 321.105469 " fill-opacity="1" fill-rule="nonzero"/><path fill="#ffffff" d="M 209.21875 319.992188 C 209.414062 314.707031 210.117188 309.527344 210.667969 304.277344 C 210.710938 303.859375 210.019531 303.765625 209.9375 304.175781 C 208.890625 309.347656 208.675781 314.730469 208.660156 319.992188 C 208.65625 320.355469 209.207031 320.351562 209.21875 319.992188 " fill-opacity="1" fill-rule="nonzero"/><path fill="#ffffff" d="M 215.90625 322.929688 C 217.898438 315.953125 219.3125 308.675781 220.3125 301.492188 C 220.390625 300.917969 219.527344 300.65625 219.429688 301.246094 C 218.207031 308.460938 216.84375 315.636719 215.5625 322.835938 C 215.527344 323.054688 215.839844 323.152344 215.90625 322.929688 " fill-opacity="1" fill-rule="nonzero"/><path fill="#ffffff" d="M 223.484375 318.257812 C 225.121094 313.097656 226.582031 307.890625 227.578125 302.570312 C 227.65625 302.15625 227.039062 301.972656 226.933594 302.394531 C 225.683594 307.65625 224.4375 312.910156 222.910156 318.097656 C 222.800781 318.46875 223.367188 318.621094 223.484375 318.257812 " fill-opacity="1" fill-rule="nonzero"/><path fill="#ffffff" d="M 242.320312 306.847656 C 242.511719 304.007812 242.480469 301.179688 242.054688 298.363281 C 242 298.023438 241.40625 298.101562 241.445312 298.449219 C 241.769531 301.246094 241.992188 304.027344 241.921875 306.847656 C 241.914062 307.105469 242.304688 307.101562 242.320312 306.847656 " fill-opacity="1" fill-rule="nonzero"/><path fill="#ffffff" d="M 252.550781 303.558594 C 252.867188 300.367188 252.6875 297.09375 251.957031 293.96875 C 251.847656 293.503906 251.175781 293.707031 251.25 294.164062 C 251.773438 297.308594 252.078125 300.375 252.113281 303.558594 C 252.117188 303.847656 252.523438 303.832031 252.550781 303.558594 " fill-opacity="1" fill-rule="nonzero"/><path fill="#ffffff" d="M 257.269531 305.441406 C 257.980469 300.332031 258.257812 295.199219 257.734375 290.050781 C 257.695312 289.628906 257.039062 289.609375 257.058594 290.050781 C 257.316406 295.183594 257.355469 300.265625 256.832031 305.382812 C 256.804688 305.628906 257.234375 305.691406 257.269531 305.441406 " fill-opacity="1" fill-rule="nonzero"/><path fill="#ffffff" d="M 270.304688 301.007812 C 270.0625 295.402344 270.140625 289.816406 270.1875 284.210938 C 270.191406 283.792969 269.570312 283.800781 269.546875 284.210938 C 269.246094 289.804688 269.496094 295.429688 269.9375 301.007812 C 269.957031 301.242188 270.3125 301.246094 270.304688 301.007812 " fill-opacity="1" fill-rule="nonzero"/><path fill="#ffffff" d="M 277.707031 299.234375 C 279.167969 292.621094 280.035156 285.847656 280.496094 279.09375 C 280.535156 278.511719 279.636719 278.519531 279.589844 279.09375 C 279.058594 285.8125 278.226562 292.453125 277.300781 299.121094 C 277.261719 299.386719 277.648438 299.507812 277.707031 299.234375 " fill-opacity="1" fill-rule="nonzero"/><path fill="#ffffff" d="M 309.140625 280.917969 C 308.882812 276.53125 308.566406 272.144531 308.082031 267.78125 C 308.035156 267.328125 307.328125 267.308594 307.363281 267.78125 C 307.671875 272.167969 308.152344 276.550781 308.683594 280.917969 C 308.71875 281.199219 309.160156 281.21875 309.140625 280.917969 " fill-opacity="1" fill-rule="nonzero"/><path fill="#ffffff" d="M 315.949219 277.3125 C 316.792969 272.296875 316.410156 266.644531 316.273438 261.570312 C 316.257812 260.949219 315.328125 260.949219 315.3125 261.570312 C 315.171875 266.648438 314.792969 272.296875 315.636719 277.3125 C 315.664062 277.46875 315.921875 277.46875 315.949219 277.3125 " fill-opacity="1" fill-rule="nonzero"/><path fill="#ffffff" d="M 327.742188 277.632812 C 327.628906 270.53125 328.042969 263.527344 328.582031 256.453125 C 328.621094 255.882812 327.777344 255.910156 327.707031 256.453125 C 326.828125 263.457031 326.808594 270.597656 327.238281 277.632812 C 327.257812 277.953125 327.75 277.964844 327.742188 277.632812 " fill-opacity="1" fill-rule="nonzero"/><path fill="#ffffff" d="M 332.816406 273.59375 C 334.652344 266.929688 335.757812 260.074219 336.242188 253.175781 C 336.273438 252.746094 335.613281 252.753906 335.578125 253.175781 C 334.984375 260.035156 333.964844 266.785156 332.617188 273.539062 C 332.589844 273.667969 332.78125 273.722656 332.816406 273.59375 " fill-opacity="1" fill-rule="nonzero"/><path fill="#ffffff" d="M 198.992188 211.136719 C 199.175781 213.484375 199.164062 215.835938 199.304688 218.1875 C 199.332031 218.636719 199.972656 218.636719 200.003906 218.1875 C 200.167969 215.835938 199.882812 213.382812 199.519531 211.0625 C 199.472656 210.765625 198.964844 210.832031 198.992188 211.136719 " fill-opacity="1" fill-rule="nonzero"/><path fill="#ffffff" d="M 210.789062 211.707031 C 210.664062 213.738281 210.644531 215.78125 210.886719 217.804688 C 210.945312 218.265625 211.65625 218.285156 211.621094 217.804688 C 211.472656 215.769531 211.332031 213.75 211.375 211.707031 C 211.382812 211.328125 210.8125 211.332031 210.789062 211.707031 " fill-opacity="1" fill-rule="nonzero"/><path fill="#ffffff" d="M 259.84375 186.492188 C 259.539062 187.960938 259.585938 189.550781 259.792969 191.03125 C 259.851562 191.433594 260.554688 191.347656 260.511719 190.933594 C 260.367188 189.46875 260.328125 188.007812 260.214844 186.542969 C 260.203125 186.34375 259.894531 186.269531 259.84375 186.492188 " fill-opacity="1" fill-rule="nonzero"/><path fill="#ffffff" d="M 272.570312 185.132812 C 272.097656 187.5625 271.976562 190.171875 272.078125 192.640625 C 272.101562 193.097656 272.769531 193.101562 272.789062 192.640625 C 272.890625 190.171875 273.015625 187.664062 272.996094 185.191406 C 272.996094 184.953125 272.617188 184.882812 272.570312 185.132812 " fill-opacity="1" fill-rule="nonzero"/><path fill="#ffffff" d="M 203.515625 224.832031 C 190.253906 225.953125 176.328125 236.628906 172.5 249.519531 C 172.21875 250.464844 173.644531 251.097656 174.113281 250.199219 C 177.160156 244.351562 180.464844 238.945312 185.554688 234.625 C 190.882812 230.097656 196.953125 227.484375 203.625 225.621094 C 204.046875 225.503906 203.980469 224.792969 203.515625 224.832031 " fill-opacity="1" fill-rule="nonzero"/><path fill="#ffffff" d="M 150.761719 185.953125 C 137.5 187.078125 123.574219 197.75 119.746094 210.640625 C 119.464844 211.585938 120.890625 212.21875 121.355469 211.320312 C 124.40625 205.472656 127.710938 200.070312 132.800781 195.746094 C 138.128906 191.21875 144.195312 188.605469 150.871094 186.742188 C 151.292969 186.625 151.226562 185.914062 150.761719 185.953125 " fill-opacity="1" fill-rule="nonzero"/><path fill="#ffffff" d="M 208.644531 159.546875 C 195.382812 160.667969 181.457031 171.34375 177.628906 184.234375 C 177.347656 185.179688 178.773438 185.808594 179.242188 184.914062 C 182.289062 179.066406 185.59375 173.660156 190.683594 169.339844 C 196.011719 164.8125 202.082031 162.199219 208.753906 160.332031 C 209.175781 160.214844 209.109375 159.503906 208.644531 159.546875 " fill-opacity="1" fill-rule="nonzero"/><path fill="#ffffff" d="M 267.261719 137.539062 C 254 138.660156 240.074219 149.335938 236.246094 162.226562 C 235.964844 163.171875 237.390625 163.804688 237.855469 162.90625 C 240.90625 157.058594 244.207031 151.652344 249.300781 147.332031 C 254.628906 142.804688 260.695312 140.191406 267.371094 138.328125 C 267.792969 138.210938 267.726562 137.5 267.261719 137.539062 " fill-opacity="1" fill-rule="nonzero"/><path fill="#ffffff" d="M 261.402344 197.691406 C 248.136719 198.8125 234.214844 209.488281 230.382812 222.378906 C 230.105469 223.324219 231.527344 223.953125 231.996094 223.058594 C 235.042969 217.210938 238.347656 211.804688 243.4375 207.484375 C 248.765625 202.957031 254.835938 200.34375 261.511719 198.476562 C 261.929688 198.359375 261.863281 197.648438 261.402344 197.691406 " fill-opacity="1" fill-rule="nonzero"/><path fill="#ffffff" d="M 321.484375 175.683594 C 308.21875 176.808594 294.296875 187.480469 290.464844 200.371094 C 290.1875 201.316406 291.609375 201.949219 292.078125 201.050781 C 295.125 195.203125 298.429688 189.796875 303.519531 185.476562 C 308.851562 180.949219 314.917969 178.335938 321.59375 176.472656 C 322.011719 176.355469 321.945312 175.644531 321.484375 175.683594 " fill-opacity="1" fill-rule="nonzero"/><path fill="#ffffff" d="M 172.167969 200.015625 C 176.382812 207.035156 178.640625 214.15625 180.617188 222.027344 C 180.816406 222.832031 182.203125 222.6875 182.101562 221.824219 C 181.160156 213.929688 177.503906 206.003906 173 199.53125 C 172.652344 199.03125 171.84375 199.476562 172.167969 200.015625 " fill-opacity="1" fill-rule="nonzero"/><path fill="#ffffff" d="M 231.460938 176.863281 C 232.722656 180.152344 234.160156 183.335938 235.167969 186.722656 C 236.183594 190.121094 236.730469 193.59375 237.566406 197.027344 C 237.726562 197.671875 238.773438 197.546875 238.738281 196.867188 C 238.371094 190.046875 235.660156 182.378906 231.878906 176.6875 C 231.746094 176.484375 231.363281 176.609375 231.460938 176.863281 " fill-opacity="1" fill-rule="nonzero"/><path fill="#ffffff" d="M 292.210938 156.914062 C 294.417969 162.964844 295.695312 168.898438 297.34375 175.085938 C 297.566406 175.9375 298.925781 175.785156 298.890625 174.878906 C 298.667969 168.691406 296.164062 161.890625 293.109375 156.535156 C 292.839844 156.0625 292.015625 156.378906 292.210938 156.914062 " fill-opacity="1" fill-rule="nonzero"/><path fill="#ffffff" d="M 232.648438 252.871094 C 232.75 255.917969 233.980469 258.875 234.378906 261.90625 C 234.84375 265.414062 234.660156 268.8125 234.554688 272.332031 C 234.523438 273.40625 236.285156 273.695312 236.464844 272.59375 C 237.417969 266.777344 237.007812 257.429688 233.039062 252.710938 C 232.910156 252.5625 232.640625 252.683594 232.648438 252.871094 " fill-opacity="1" fill-rule="nonzero"/><path fill="#ffffff" d="M 290.101562 226.207031 C 291.476562 232.578125 291.695312 238.332031 291.46875 244.796875 C 291.429688 245.976562 293.335938 246.277344 293.558594 245.078125 C 294.726562 238.804688 293.546875 231.640625 290.828125 225.898438 C 290.628906 225.46875 290.007812 225.78125 290.101562 226.207031 " fill-opacity="1" fill-rule="nonzero"/><path fill="#ffffff" d="M 350.621094 206.296875 C 351.988281 212.570312 351.832031 218.191406 350.988281 224.5 C 350.832031 225.664062 352.734375 225.878906 353.011719 224.773438 C 354.539062 218.695312 353.71875 211.855469 351.371094 206.089844 C 351.1875 205.636719 350.515625 205.796875 350.621094 206.296875 " fill-opacity="1" fill-rule="nonzero"/><path fill="#ffffff" d="M 263.457031 288.34375 C 262.992188 295.699219 262.816406 303.226562 263.058594 310.59375 C 263.09375 311.613281 264.605469 311.613281 264.636719 310.59375 C 264.878906 303.226562 264.703125 295.699219 264.238281 288.34375 C 264.207031 287.84375 263.492188 287.839844 263.457031 288.34375 " fill-opacity="1" fill-rule="nonzero"/><path fill="#ffffff" d="M 321.648438 259.40625 C 321.226562 260.582031 321.355469 262.136719 321.285156 263.367188 C 321.121094 266.230469 320.980469 269.101562 320.851562 271.964844 C 320.65625 276.351562 320.257812 280.78125 320.402344 285.167969 C 320.4375 286.285156 322.023438 286.257812 322.117188 285.167969 C 322.5 280.792969 322.339844 276.351562 322.382812 271.964844 C 322.410156 269.101562 322.425781 266.234375 322.417969 263.367188 C 322.410156 262.128906 322.625 260.605469 322.265625 259.40625 C 322.171875 259.089844 321.753906 259.113281 321.648438 259.40625 " fill-opacity="1" fill-rule="nonzero"/><path fill="#ffffff" d="M 170.515625 295.75 C 170.695312 301.621094 173.105469 307.796875 174.332031 313.546875 C 175.675781 319.832031 176.308594 326.53125 178.179688 332.664062 C 178.519531 333.769531 180.351562 333.625 180.273438 332.378906 C 179.875 326.164062 177.886719 319.730469 176.390625 313.699219 C 174.957031 307.925781 173.953125 300.832031 171.007812 295.621094 C 170.878906 295.394531 170.507812 295.488281 170.515625 295.75 " fill-opacity="1" fill-rule="nonzero"/><path fill="#ffffff" d="M 201.527344 305.152344 C 201.160156 306.179688 201.265625 307.503906 201.222656 308.570312 C 201.097656 311.460938 201.023438 314.359375 200.941406 317.253906 C 200.839844 320.882812 200.707031 324.515625 200.519531 328.140625 C 200.355469 331.445312 199.523438 335.207031 199.933594 338.472656 C 200.058594 339.480469 201.4375 339.800781 201.777344 338.726562 C 202.699219 335.8125 202.324219 332.121094 202.390625 329.089844 C 202.476562 325.292969 202.496094 321.496094 202.484375 317.699219 C 202.476562 314.65625 202.441406 311.613281 202.316406 308.570312 C 202.273438 307.507812 202.371094 306.171875 201.992188 305.152344 C 201.910156 304.925781 201.613281 304.925781 201.527344 305.152344 " fill-opacity="1" fill-rule="nonzero"/><path fill="#ffffff" d="M 232.835938 299.03125 C 230.789062 304.929688 229.203125 310.988281 227.25 316.914062 C 225.324219 322.753906 222.4375 328.625 221.09375 334.605469 C 220.890625 335.507812 222.167969 336.132812 222.640625 335.257812 C 225.46875 330.046875 226.902344 323.675781 228.625 318.015625 C 230.5 311.851562 232.433594 305.589844 233.539062 299.230469 C 233.621094 298.765625 232.992188 298.582031 232.835938 299.03125 " fill-opacity="1" fill-rule="nonzero"/><path fill="#ffffff" d="M 289.382812 275.527344 C 286.425781 285.085938 283.515625 294.675781 280.585938 304.246094 C 280.257812 305.3125 281.828125 305.6875 282.21875 304.699219 C 285.808594 295.535156 288.652344 285.484375 290.308594 275.78125 C 290.410156 275.179688 289.570312 274.921875 289.382812 275.527344 " fill-opacity="1" fill-rule="nonzero"/><path fill="#ffffff" d="M 244.875 293.722656 C 245.164062 298.296875 245.210938 302.835938 244.984375 307.417969 C 244.933594 308.429688 246.523438 308.433594 246.5625 307.417969 C 246.753906 302.792969 246.460938 298.175781 245.683594 293.613281 C 245.605469 293.15625 244.84375 293.257812 244.875 293.722656 " fill-opacity="1" fill-rule="nonzero"/><path fill="#ffffff" d="M 345.566406 249.605469 C 342.753906 259.078125 339.890625 268.675781 337.507812 278.265625 C 337.183594 279.5625 339.066406 280.058594 339.496094 278.8125 C 342.6875 269.53125 345.085938 259.617188 346.9375 249.980469 C 347.109375 249.09375 345.835938 248.714844 345.566406 249.605469 " fill-opacity="1" fill-rule="nonzero"/><path fill="#ffffff" d="M 301.675781 269.027344 C 301.667969 273.589844 301.792969 278.15625 301.671875 282.71875 C 301.632812 284.039062 303.808594 283.996094 303.6875 282.71875 C 303.238281 278.167969 303.035156 273.589844 302.703125 269.027344 C 302.660156 268.371094 301.675781 268.355469 301.675781 269.027344 " fill-opacity="1" fill-rule="nonzero"/><path fill="#ffffff" d="M 118.960938 264.417969 C 119.039062 269.238281 120.972656 274.359375 122.128906 279.035156 C 123.398438 284.167969 124.425781 289.457031 126.054688 294.484375 C 126.4375 295.667969 128.15625 295.1875 127.90625 293.976562 C 126.847656 288.796875 125.132812 283.6875 123.707031 278.597656 C 122.402344 273.953125 121.574219 268.574219 119.261719 264.335938 C 119.183594 264.199219 118.957031 264.261719 118.960938 264.417969 " fill-opacity="1" fill-rule="nonzero"/><path fill="#ffffff" d="M 141.515625 280.039062 C 140.972656 280.488281 140.894531 281.097656 141.28125 281.859375 C 141.363281 282.816406 141.441406 283.769531 141.527344 284.726562 C 141.6875 286.644531 141.851562 288.5625 141.957031 290.484375 C 142.171875 294.320312 141.910156 298.230469 142.347656 302.039062 C 142.472656 303.140625 143.9375 303.140625 144.066406 302.039062 C 144.632812 297.109375 143.855469 291.789062 143.273438 286.882812 C 143.039062 284.917969 143.328125 280.617188 141.527344 279.472656 C 141.378906 279.378906 141.1875 279.421875 141.066406 279.53125 C 140.988281 279.605469 140.910156 279.675781 140.832031 279.75 C 140.726562 279.847656 140.6875 280.0625 140.777344 280.1875 C 140.824219 280.253906 140.875 280.316406 140.921875 280.382812 C 141.179688 280.734375 141.734375 280.4375 141.515625 280.039062 " fill-opacity="1" fill-rule="nonzero"/><path fill="#ffffff" d="M 156.304688 305.097656 C 157.304688 299.230469 158.5 293.425781 159.640625 287.589844 C 159.84375 286.558594 158.339844 286.113281 158.050781 287.148438 C 156.460938 292.910156 155.613281 299 155.3125 304.960938 C 155.285156 305.519531 156.207031 305.664062 156.304688 305.097656 " fill-opacity="1" fill-rule="nonzero"/><path fill="#ffffff" d="M 204.84375 212.457031 C 204.523438 213.609375 204.546875 214.75 204.429688 215.933594 C 204.300781 217.246094 203.976562 218.542969 203.921875 219.855469 C 203.882812 220.75 205.070312 220.761719 205.359375 220.050781 C 206.246094 217.878906 206.332031 214.5 205.195312 212.40625 C 205.117188 212.257812 204.886719 212.296875 204.84375 212.457031 " fill-opacity="1" fill-rule="nonzero"/><path fill="#ffffff" d="M 266.546875 185.398438 C 266.371094 188.132812 266.105469 190.980469 266.261719 193.714844 C 266.335938 195.011719 268.199219 195.015625 268.277344 193.714844 C 268.433594 190.980469 268.167969 188.132812 267.988281 185.398438 C 267.929688 184.472656 266.605469 184.472656 266.546875 185.398438 " fill-opacity="1" fill-rule="nonzero"/><path fill="#ffffff" d="M 245.746094 256.410156 C 247.546875 258.679688 248.402344 260.894531 248.9375 263.71875 C 249.109375 264.609375 250.394531 264.335938 250.445312 263.511719 C 250.632812 260.480469 248.894531 257.265625 246.382812 255.582031 C 245.84375 255.226562 245.398438 255.980469 245.746094 256.410156 " fill-opacity="1" fill-rule="nonzero"/><path fill="#ffffff" d="M 303.253906 233.65625 C 305.863281 235.292969 307.394531 238.171875 306.265625 241.25 C 305.96875 242.054688 307.253906 242.589844 307.644531 241.832031 C 309.347656 238.527344 307.710938 233.359375 303.636719 232.75 C 303.105469 232.675781 302.753906 233.335938 303.253906 233.65625 " fill-opacity="1" fill-rule="nonzero"/><path fill="#ffffff" d="M 206.996094 297.390625 C 214.480469 300.605469 225.832031 296.285156 232.628906 293.089844 C 233.222656 292.8125 232.800781 291.78125 232.179688 292.019531 C 227.484375 293.847656 223.128906 296.128906 218.101562 296.976562 C 214.390625 297.597656 210.9375 296.503906 207.222656 296.558594 C 206.8125 296.5625 206.566406 297.203125 206.996094 297.390625 " fill-opacity="1" fill-rule="nonzero"/><path fill="#ffffff" d="M 106.507812 247.375 C 110.917969 252.835938 117.890625 257.332031 123.949219 260.710938 C 127.832031 262.875 131.792969 264.929688 135.722656 267.003906 C 143.667969 271.199219 152.375 275.324219 160.03125 279.351562 C 160.722656 279.714844 161.335938 278.667969 160.644531 278.304688 C 152.726562 274.136719 144.972656 269.609375 137.039062 265.445312 C 126.410156 259.863281 116.421875 254.347656 106.8125 246.980469 C 106.566406 246.789062 106.339844 247.171875 106.507812 247.375 " fill-opacity="1" fill-rule="nonzero"/><path fill="#ffffff" d="M 361.6875 218.792969 C 368.402344 223.835938 361.449219 231.234375 356.628906 234.164062 C 355.375 234.925781 354.117188 235.59375 352.800781 236.226562 C 348.886719 238.105469 344.933594 239.90625 341.007812 241.769531 C 329.996094 247 318.96875 252.207031 307.964844 257.453125 C 304.839844 258.941406 301.75 260.441406 298.742188 262.132812 C 297.738281 262.691406 298.636719 264.238281 299.644531 263.671875 C 302.253906 262.207031 305.875 260.828125 308.785156 259.433594 C 314.84375 256.527344 320.910156 253.636719 326.972656 250.746094 C 336.433594 246.238281 346.1875 242.050781 355.375 236.992188 C 359.085938 234.949219 363.257812 232.207031 364.902344 228.101562 C 366.328125 224.542969 365.550781 220.121094 362.058594 218.15625 C 361.636719 217.921875 361.320312 218.515625 361.6875 218.792969 " fill-opacity="1" fill-rule="nonzero"/><path fill="#ffffff" d="M 224.429688 296.203125 C 241.082031 290.238281 257.207031 282.707031 273.308594 275.394531 C 289.648438 267.972656 306.226562 260.648438 322.128906 252.320312 C 322.511719 252.121094 322.242188 251.433594 321.832031 251.605469 C 305.519531 258.449219 289.519531 266.179688 273.402344 273.472656 C 257.011719 280.890625 240.578125 288.21875 224.183594 295.621094 C 223.851562 295.765625 224.085938 296.328125 224.429688 296.203125 " fill-opacity="1" fill-rule="nonzero"/><path fill="#ffffff" d="M 55.140625 230.269531 C 55.691406 224.863281 55.703125 219.191406 55.347656 213.765625 C 55.289062 212.882812 54.03125 212.878906 53.972656 213.765625 C 53.617188 219.1875 53.625 224.863281 54.179688 230.269531 C 54.242188 230.890625 55.078125 230.890625 55.140625 230.269531 " fill-opacity="1" fill-rule="nonzero"/><path fill="#ffffff" d="M 8.730469 150.753906 C 9.800781 146.65625 10.148438 142.058594 10.351562 137.839844 C 10.398438 136.828125 8.941406 136.890625 8.816406 137.839844 C 8.277344 141.992188 7.816406 146.492188 8.148438 150.675781 C 8.171875 150.996094 8.640625 151.09375 8.730469 150.753906 " fill-opacity="1" fill-rule="nonzero"/><path fill="#ffffff" d="M 172.652344 40.539062 C 170.289062 48.585938 169.03125 57.105469 167.152344 65.292969 C 166.839844 66.660156 168.949219 67.238281 169.25 65.871094 C 171.058594 57.671875 173.160156 49.070312 173.578125 40.667969 C 173.601562 40.125 172.796875 40.042969 172.652344 40.539062 " fill-opacity="1" fill-rule="nonzero"/><path fill="#ffffff" d="M 151.773438 45.414062 C 151.417969 51.984375 150.960938 58.640625 150.898438 65.21875 C 150.886719 66.761719 153.125 66.707031 153.257812 65.21875 C 153.839844 58.710938 153.660156 51.925781 153.195312 45.414062 C 153.128906 44.507812 151.824219 44.496094 151.773438 45.414062 " fill-opacity="1" fill-rule="nonzero"/><path fill="#ffffff" d="M 185.847656 53.023438 C 182.933594 60.8125 180.859375 69.046875 178.425781 77.003906 C 177.980469 78.457031 180.269531 79.089844 180.699219 77.628906 C 183.039062 69.695312 185.570312 61.480469 186.84375 53.296875 C 186.941406 52.644531 186.082031 52.390625 185.847656 53.023438 " fill-opacity="1" fill-rule="nonzero"/><path fill="#ffffff" d="M 19.71875 98.96875 C 20.03125 104.539062 19.9375 110.652344 20.96875 116.113281 C 21.195312 117.324219 22.90625 116.929688 22.992188 115.839844 C 23.414062 110.496094 21.996094 103.992188 20.664062 98.839844 C 20.53125 98.324219 19.6875 98.417969 19.71875 98.96875 " fill-opacity="1" fill-rule="nonzero"/><path fill="#ffffff" d="M 206.878906 69.660156 C 205.535156 73.402344 204.402344 77.222656 203.226562 81.019531 C 202.070312 84.746094 200.449219 88.609375 199.914062 92.472656 C 199.792969 93.332031 201.050781 94.117188 201.480469 93.136719 C 203 89.6875 203.640625 85.769531 204.574219 82.117188 C 205.617188 78.042969 206.71875 73.972656 207.585938 69.855469 C 207.679688 69.390625 207.039062 69.214844 206.878906 69.660156 " fill-opacity="1" fill-rule="nonzero"/><path fill="#ffffff" d="M 236.914062 142.570312 C 236.75 142.898438 236.585938 143.222656 236.421875 143.546875 C 236.378906 143.640625 236.519531 143.722656 236.5625 143.628906 C 236.726562 143.304688 236.890625 142.976562 237.054688 142.652344 C 237.097656 142.558594 236.957031 142.480469 236.914062 142.570312 " fill-opacity="1" fill-rule="nonzero"/><path fill="#ffffff" d="M 238.648438 138.46875 C 236.871094 140.320312 235.882812 142.820312 234.707031 145.078125 C 233.5 147.40625 232.164062 149.699219 231.210938 152.148438 C 230.828125 153.136719 232.367188 153.71875 232.886719 152.851562 C 234.28125 150.515625 235.296875 147.925781 236.433594 145.457031 C 237.429688 143.285156 238.699219 141.089844 239.050781 138.703125 C 239.082031 138.484375 238.832031 138.28125 238.648438 138.46875 " fill-opacity="1" fill-rule="nonzero"/><path fill="#ffffff" d="M 43.789062 110.433594 C 37.105469 113.296875 28.527344 116.585938 24.082031 122.636719 C 20.484375 127.542969 18.855469 134.460938 20.21875 140.417969 C 20.472656 141.53125 22.21875 141.285156 22.199219 140.148438 C 22.082031 133.703125 22.59375 127.445312 27.136719 122.421875 C 31.675781 117.402344 38.738281 114.964844 44.308594 111.324219 C 44.878906 110.953125 44.386719 110.179688 43.789062 110.433594 " fill-opacity="1" fill-rule="nonzero"/><path fill="#ffffff" d="M 131.546875 80.328125 C 139.664062 77.792969 148.636719 74.953125 157.167969 74.503906 C 167.296875 73.972656 172.503906 82.976562 177.742188 90.148438 C 178.382812 91.019531 179.699219 90.28125 179.207031 89.289062 C 175.835938 82.492188 168.898438 73.867188 160.90625 72.855469 C 156.207031 72.265625 151.234375 73.574219 146.699219 74.667969 C 141.441406 75.929688 136.390625 77.695312 131.386719 79.730469 C 131.027344 79.878906 131.160156 80.449219 131.546875 80.328125 " fill-opacity="1" fill-rule="nonzero"/><path fill="#ffffff" d="M 217.257812 143.78125 C 219.65625 146.566406 221.605469 149.621094 222.863281 153.082031 C 223.917969 155.996094 224.140625 158.964844 224.855469 161.945312 C 225.140625 163.113281 226.660156 162.707031 226.792969 161.679688 C 227.667969 154.789062 223.089844 147.285156 218.148438 142.890625 C 217.539062 142.347656 216.730469 143.167969 217.257812 143.78125 " fill-opacity="1" fill-rule="nonzero"/><path fill="#ffffff" d="M 35.839844 81.285156 C 66.289062 71.476562 96.417969 60.652344 126.613281 50.082031 C 130.882812 48.585938 135.152344 47.078125 139.429688 45.589844 C 140.199219 45.320312 139.867188 44.078125 139.085938 44.351562 C 108.859375 54.882812 78.59375 65.285156 48.453125 76.050781 C 44.183594 77.578125 39.9375 79.164062 35.691406 80.757812 C 35.371094 80.878906 35.496094 81.394531 35.839844 81.285156 " fill-opacity="1" fill-rule="nonzero"/><path fill="#ffffff" d="M 138.101562 30.820312 C 101.84375 41.933594 64.496094 51.296875 29.632812 66.46875 C 23.167969 69.285156 17.097656 72.554688 12.34375 77.921875 C 6.515625 84.496094 2.871094 92.886719 1.511719 101.535156 C 0.0234375 110.957031 1.660156 119.648438 4.664062 128.605469 C 8.570312 140.257812 14.085938 151.289062 19.90625 162.085938 C 26.03125 173.441406 32.351562 184.695312 39.117188 195.679688 C 41.003906 198.746094 42.898438 201.8125 44.898438 204.800781 C 45.429688 205.59375 45.980469 206.355469 46.558594 207.113281 C 46.859375 207.503906 47.367188 208.1875 47.199219 207.941406 C 48.621094 209.984375 51.996094 208.039062 50.558594 205.976562 C 43.003906 195.121094 36.433594 183.335938 29.988281 171.804688 C 24.144531 161.351562 18.292969 150.851562 13.449219 139.890625 C 9.203125 130.292969 4.796875 119.609375 4.957031 108.9375 C 5.089844 100.238281 7.726562 91.425781 12.722656 84.277344 C 17.054688 78.078125 23 74.183594 29.777344 71.148438 C 44.761719 64.4375 60.570312 59.515625 76.066406 54.152344 C 96.898438 46.949219 117.789062 39.921875 138.636719 32.765625 C 139.855469 32.347656 139.355469 30.4375 138.101562 30.820312 " fill-opacity="1" fill-rule="nonzero"/><path fill="#ffffff" d="M 118.894531 39.4375 C 128.351562 36.882812 137.371094 33.382812 147.035156 31.539062 C 156.582031 29.71875 166.414062 28.730469 176.019531 30.78125 C 184.425781 32.570312 189.839844 37.097656 195.503906 43.269531 C 199.808594 47.960938 203.820312 52.9375 207.207031 58.335938 C 218.804688 76.824219 231.515625 94.578125 242.488281 113.46875 C 245.179688 118.105469 247.855469 122.800781 250.007812 127.71875 C 250.691406 129.285156 251.414062 130.9375 251.753906 132.625 C 251.863281 133.171875 251.941406 133.65625 251.941406 134.214844 C 251.9375 134.59375 251.957031 134.257812 252.109375 134.175781 C 250.027344 135.28125 251.871094 138.445312 253.960938 137.34375 C 259.398438 134.46875 251.882812 122.617188 250.238281 119.496094 C 244.160156 107.976562 237.039062 96.988281 229.945312 86.078125 C 223.816406 76.640625 217.476562 67.339844 211.363281 57.894531 C 208.140625 52.90625 204.660156 48.191406 200.753906 43.710938 C 195.871094 38.109375 190.527344 32.195312 183.484375 29.386719 C 173.527344 25.417969 162.335938 25.953125 151.972656 27.761719 C 140.601562 29.75 128.859375 33.378906 118.578125 38.679688 C 118.15625 38.898438 118.453125 39.558594 118.894531 39.4375 " fill-opacity="1" fill-rule="nonzero"/><path fill="#ffffff" d="M 37.910156 191.300781 C 42.203125 199.863281 47.246094 208.3125 53.222656 215.804688 C 58.507812 222.425781 65.449219 229.3125 74.015625 231.238281 C 81.125 232.832031 89.054688 230.488281 95.773438 228.265625 C 100.496094 226.699219 105.066406 224.816406 109.546875 222.675781 C 112.257812 221.375 109.890625 217.339844 107.191406 218.636719 C 108.222656 218.140625 106.550781 218.90625 106.457031 218.945312 C 105.558594 219.316406 104.671875 219.691406 103.78125 220.070312 C 100.988281 221.257812 98.167969 222.363281 95.300781 223.351562 C 89.222656 225.441406 81.765625 228.039062 75.273438 226.683594 C 67.28125 225.019531 60.449219 218.113281 55.347656 212.15625 C 49.472656 205.304688 44.839844 197.609375 39.492188 190.375 C 38.800781 189.4375 37.371094 190.226562 37.910156 191.300781 " fill-opacity="1" fill-rule="nonzero"/><path fill="#ffffff" d="M 142.476562 37.332031 C 109.746094 47.3125 76.746094 56.519531 44.730469 68.691406 C 32.234375 73.4375 20.203125 78.117188 13.96875 90.996094 C 10.351562 98.472656 8.875 107.082031 10.050781 115.320312 C 11.609375 126.195312 16.738281 136.90625 21.632812 146.628906 C 30.058594 163.367188 40.488281 181.351562 50.339844 196.164062 C 51.722656 198.242188 55.09375 196.292969 53.703125 194.199219 C 45.59375 182.007812 38.421875 169.019531 31.386719 156.191406 C 25.679688 145.785156 20.105469 135.210938 16.449219 123.878906 C 13.582031 115.011719 12.78125 106.492188 15.773438 97.515625 C 18.398438 89.652344 23.597656 82.910156 31.019531 79.097656 C 35.566406 76.757812 40.421875 74.972656 45.199219 73.179688 C 60.265625 67.515625 75.566406 62.476562 90.789062 57.25 C 108.203125 51.269531 125.605469 45.28125 143.011719 39.28125 C 144.226562 38.859375 143.730469 36.953125 142.476562 37.332031 " fill-opacity="1" fill-rule="nonzero"/><path fill="#ffffff" d="M 91.664062 55.261719 C 106.828125 51.015625 121.695312 45.757812 136.925781 41.6875 C 152.664062 37.484375 172.957031 32.90625 185.710938 45.996094 C 194.53125 55.046875 200.972656 65.949219 207.933594 76.410156 C 215.753906 88.167969 223.601562 99.917969 231.011719 111.945312 C 234.738281 117.992188 238.429688 124.101562 241.585938 130.472656 C 242.609375 132.53125 243.628906 134.636719 244.292969 136.84375 C 244.472656 137.441406 244.546875 138.191406 244.730469 138.726562 C 245.050781 139.660156 244.308594 139.363281 245.015625 138.984375 C 242.933594 140.101562 244.785156 143.265625 246.863281 142.15625 C 249.675781 140.652344 248.359375 136.691406 247.515625 134.410156 C 245.542969 129.089844 242.652344 124.082031 239.820312 119.1875 C 232.09375 105.835938 223.523438 92.972656 214.984375 80.132812 C 207.914062 69.511719 201.289062 58.441406 193.054688 48.667969 C 190.332031 45.441406 187.464844 42.171875 184.085938 39.605469 C 180.316406 36.742188 175.511719 35.34375 170.894531 34.613281 C 162.144531 33.214844 153.355469 34.148438 144.824219 36.300781 C 134.855469 38.824219 125.027344 41.976562 115.316406 45.34375 C 107.296875 48.132812 98.949219 50.691406 91.34375 54.507812 C 90.921875 54.71875 91.21875 55.382812 91.664062 55.261719 " fill-opacity="1" fill-rule="nonzero"/><path fill="#ffffff" d="M 32.425781 164.261719 C 40.101562 179.0625 47.738281 194.1875 57.761719 207.566406 C 61.746094 212.875 66.726562 218.996094 73.121094 221.449219 C 79.652344 223.960938 87.890625 221.664062 94.332031 219.9375 C 98.535156 218.8125 102.675781 217.46875 106.765625 215.992188 C 108.042969 215.535156 109.304688 215.054688 110.554688 214.53125 C 110.925781 214.375 113.03125 213.480469 112.203125 213.824219 C 114.945312 212.695312 113.746094 208.167969 110.960938 209.3125 C 106.703125 211.058594 102.253906 212.523438 97.863281 213.898438 C 91.375 215.921875 83.289062 218.769531 76.402344 217.488281 C 70.339844 216.359375 65.566406 209.894531 61.917969 205.441406 C 56.347656 198.644531 51.617188 191.234375 46.902344 183.828125 C 42.574219 177.035156 38.679688 169.902344 34.007812 163.335938 C 33.328125 162.386719 31.871094 163.199219 32.425781 164.261719 " fill-opacity="1" fill-rule="nonzero"/><path fill="#ffffff" d="M 109.289062 240.679688 C 107.230469 219.828125 117.8125 196.832031 136.671875 186.917969 C 142.191406 184.015625 148.628906 182.246094 154.878906 183.234375 C 161.324219 184.253906 166.746094 188.28125 171.238281 192.804688 C 179.078125 200.699219 183.109375 211.890625 185.257812 222.613281 C 185.75 225.070312 189.507812 224.03125 189.007812 221.578125 C 185.433594 203.9375 174.480469 181.523438 154.203125 179.375 C 134.921875 177.332031 118.109375 194.164062 111.234375 210.671875 C 107.207031 220.351562 105.667969 230.621094 108.390625 240.804688 C 108.519531 241.289062 109.34375 241.210938 109.289062 240.679688 " fill-opacity="1" fill-rule="nonzero"/><path fill="#ffffff" d="M 170.183594 188.101562 C 175.882812 171.742188 192.363281 153.46875 211.511719 156.503906 C 220.578125 157.941406 228.445312 165.335938 233.335938 172.753906 C 238.3125 180.292969 241.257812 189.035156 242.484375 197.957031 C 242.824219 200.429688 246.582031 199.378906 246.242188 196.921875 C 244.792969 186.601562 241.003906 176.335938 234.640625 168.027344 C 228.882812 160.511719 220.53125 153.679688 210.835938 152.648438 C 190.226562 150.453125 172.953125 169.226562 167.226562 187.285156 C 166.625 189.183594 169.539062 189.953125 170.183594 188.101562 " fill-opacity="1" fill-rule="nonzero"/><path fill="#ffffff" d="M 230.273438 164.753906 C 236.125 148.8125 253.417969 131.273438 271.960938 134.746094 C 280.960938 136.433594 288.675781 143.871094 293.488281 151.328125 C 298.261719 158.71875 301.105469 167.21875 302.328125 175.902344 C 302.675781 178.371094 306.433594 177.324219 306.082031 174.863281 C 304.664062 164.984375 301.109375 155.125 295.175781 147.039062 C 289.421875 139.207031 280.914062 131.964844 270.953125 130.8125 C 251.046875 128.503906 233.121094 146.332031 227.3125 163.9375 C 226.6875 165.835938 229.601562 166.585938 230.273438 164.753906 " fill-opacity="1" fill-rule="nonzero"/><path fill="#ffffff" d="M 164.304688 277.132812 C 162.3125 258.476562 169.847656 238.441406 185.59375 227.679688 C 194.808594 221.382812 206.550781 218.433594 216.65625 224.441406 C 224.921875 229.359375 231.011719 237.488281 234.757812 246.230469 C 238.476562 254.898438 240.835938 265.324219 239.148438 274.746094 C 238.726562 277.105469 242.3125 278.132812 242.769531 275.746094 C 246.410156 256.789062 236.890625 234.441406 221.527344 223.160156 C 201.777344 208.644531 177.351562 224.265625 167.59375 243.160156 C 162.117188 253.777344 160.394531 265.714844 163.402344 277.253906 C 163.53125 277.738281 164.359375 277.65625 164.304688 277.132812 " fill-opacity="1" fill-rule="nonzero"/><path fill="#ffffff" d="M 223.582031 226.167969 C 230.210938 207.183594 253.332031 184.765625 274.296875 198.339844 C 289.445312 208.15625 298.976562 230.136719 295.78125 248.019531 C 295.359375 250.378906 298.945312 251.40625 299.402344 249.019531 C 302.339844 233.769531 296.417969 215.855469 286.503906 204.195312 C 280.558594 197.199219 272.46875 191.21875 263.050781 190.613281 C 253.835938 190.011719 244.753906 194.148438 237.707031 199.820312 C 229.546875 206.390625 223.769531 215.402344 220.621094 225.355469 C 220.019531 227.257812 222.933594 228.019531 223.582031 226.167969 " fill-opacity="1" fill-rule="nonzero"/><path fill="#ffffff" d="M 284.402344 203.632812 C 287.976562 193.851562 293.71875 184.714844 302.476562 178.816406 C 312.289062 172.214844 324.382812 169.914062 334.65625 176.804688 C 349.484375 186.75 358.8125 208.4375 355.648438 226.152344 C 355.226562 228.507812 358.8125 229.535156 359.269531 227.148438 C 362.175781 212.042969 356.375 194.375 346.703125 182.714844 C 340.867188 175.683594 332.84375 169.625 323.507812 168.796875 C 314.3125 167.976562 305.074219 171.988281 298.003906 177.636719 C 289.953125 184.066406 284.601562 193.109375 281.441406 202.816406 C 280.824219 204.714844 283.730469 205.46875 284.402344 203.632812 " fill-opacity="1" fill-rule="nonzero"/><path fill="#ffffff" d="M 107.796875 235.628906 C 106.226562 239.261719 109.191406 243.460938 111.75 245.859375 C 116.042969 249.890625 121.925781 252.523438 127.367188 254.589844 C 133.289062 256.835938 139.535156 258.089844 145.847656 258.523438 C 151.535156 258.914062 159.359375 259.339844 164.53125 256.574219 C 166.5625 255.492188 165.449219 252.667969 163.433594 252.519531 C 160.84375 252.324219 158.179688 253.105469 155.597656 253.363281 C 153.167969 253.605469 150.730469 253.707031 148.285156 253.667969 C 142.988281 253.59375 137.773438 252.8125 132.648438 251.488281 C 127.671875 250.203125 122.953125 248.339844 118.402344 245.957031 C 114.144531 243.726562 109.800781 240.894531 108.964844 235.785156 C 108.878906 235.261719 108.007812 235.136719 107.796875 235.628906 " fill-opacity="1" fill-rule="nonzero"/><path fill="#ffffff" d="M 163.082031 276.890625 C 166.027344 282.53125 172.761719 285.046875 178.40625 287.070312 C 185.996094 289.789062 193.835938 291.242188 201.898438 291.367188 C 209.308594 291.484375 216.632812 290.566406 223.664062 288.148438 C 229.761719 286.054688 238.007812 282.855469 242.101562 277.640625 C 243.5 275.863281 241.816406 273.425781 239.660156 274.472656 C 236.878906 275.824219 234.464844 277.976562 231.746094 279.5 C 228.773438 281.167969 225.652344 282.554688 222.425781 283.652344 C 216.203125 285.773438 209.789062 286.742188 203.226562 286.808594 C 196.289062 286.878906 189.359375 285.984375 182.644531 284.234375 C 176.085938 282.53125 169.660156 280.460938 164.773438 275.585938 C 163.890625 274.703125 162.527344 275.816406 163.082031 276.890625 " fill-opacity="1" fill-rule="nonzero"/><path fill="#ffffff" d="M 261.402344 264.621094 C 268.390625 264.585938 275.238281 263.519531 281.800781 261.046875 C 287.53125 258.886719 294.816406 255.796875 298.734375 250.914062 C 300.144531 249.152344 298.429688 246.675781 296.292969 247.742188 C 293.726562 249.027344 291.507812 251.011719 289.023438 252.476562 C 286.144531 254.179688 283.117188 255.625 279.972656 256.765625 C 273.964844 258.945312 267.78125 259.949219 261.402344 260.035156 C 258.457031 260.078125 258.449219 264.636719 261.402344 264.621094 " fill-opacity="1" fill-rule="nonzero"/><path fill="#ffffff" d="M 321.199219 243.09375 C 328.285156 242.632812 335.261719 241.136719 341.910156 238.648438 C 347.566406 236.535156 355.234375 233.664062 358.917969 228.632812 C 360.25 226.816406 357.761719 225.164062 356.160156 225.875 C 353.609375 227.007812 351.375 229.023438 348.910156 230.386719 C 345.925781 232.042969 342.800781 233.414062 339.589844 234.550781 C 333.664062 236.644531 327.46875 238.046875 321.199219 238.507812 C 318.285156 238.71875 318.25 243.285156 321.199219 243.09375 " fill-opacity="1" fill-rule="nonzero"/><path fill="#ffffff" d="M 17.644531 128.566406 C 18.316406 121.707031 21.527344 117.285156 27.136719 113.59375 C 31.433594 110.765625 36.207031 108.792969 40.988281 106.945312 C 52.285156 102.582031 63.671875 98.414062 75 94.136719 C 99.332031 84.960938 123.769531 76.402344 148.757812 69.171875 C 151.21875 68.460938 150.179688 64.628906 147.699219 65.328125 C 127.015625 71.132812 106.589844 77.691406 86.402344 85.039062 C 75.058594 89.164062 63.742188 93.453125 52.589844 98.078125 C 45.050781 101.203125 37.320312 104.054688 30.316406 108.296875 C 22.417969 113.074219 16.917969 118.898438 17.09375 128.566406 C 17.101562 128.925781 17.613281 128.914062 17.644531 128.566406 " fill-opacity="1" fill-rule="nonzero"/><path fill="#ffffff" d="M 192.125 94.902344 C 190.816406 89.921875 186.921875 84.699219 184 80.589844 C 179.710938 74.566406 174.15625 67.128906 166.992188 64.445312 C 159.871094 61.78125 150.964844 63.949219 143.882812 65.742188 C 140.269531 66.660156 136.640625 67.765625 133.160156 69.113281 C 131.90625 69.597656 130.671875 70.144531 129.445312 70.683594 C 129.179688 70.800781 127.351562 71.585938 128.277344 71.21875 C 125.976562 72.132812 126.976562 75.902344 129.3125 74.980469 C 133.585938 73.289062 138.308594 72.195312 142.738281 71.015625 C 149.449219 69.234375 158.285156 66.433594 165.160156 68.851562 C 171.972656 71.242188 177.101562 78.816406 181.382812 84.222656 C 184.355469 87.976562 186.96875 92.5625 190.402344 95.902344 C 191.140625 96.621094 192.390625 95.902344 192.125 94.902344 " fill-opacity="1" fill-rule="nonzero"/><path fill="#ffffff" d="M 71.230469 252.652344 C 72.996094 247.894531 73.070312 242.179688 73.394531 237.160156 C 73.574219 234.347656 74.328125 230.40625 73.078125 227.777344 C 72.578125 226.730469 70.902344 226.785156 70.386719 227.777344 C 69.109375 230.246094 69.632812 234.019531 69.601562 236.722656 C 69.539062 241.890625 69.148438 247.328125 69.789062 252.453125 C 69.890625 253.269531 70.929688 253.460938 71.230469 252.652344 " fill-opacity="1" fill-rule="nonzero"/><path fill="#ffffff" d="M 46.457031 232.238281 C 51.132812 238.976562 56.476562 245.613281 62.878906 250.765625 C 67.15625 254.207031 71.605469 256.507812 77.199219 256.769531 C 85.34375 257.148438 93.074219 254.304688 100.328125 250.875 C 102.851562 249.679688 101.050781 245.277344 98.40625 246.308594 C 91.867188 248.855469 85.074219 253.132812 77.847656 253.035156 C 71.847656 252.953125 67.546875 249.914062 63.46875 245.859375 C 58.617188 241.03125 54.164062 235.644531 50.292969 229.996094 C 48.683594 227.644531 44.824219 229.882812 46.457031 232.238281 " fill-opacity="1" fill-rule="nonzero"/><path fill="#ffffff" d="M 12.015625 183 C 17.582031 193.617188 23.496094 204.003906 29.191406 214.539062 C 33.023438 221.632812 37.371094 230.648438 45.96875 232.640625 C 48.691406 233.269531 49.851562 229.113281 47.125 228.4375 C 39.097656 226.460938 35.402344 216.589844 31.707031 210.113281 C 26.199219 200.460938 20.761719 190.765625 15.261719 181.105469 C 14.058594 178.996094 10.898438 180.863281 12.015625 183 " fill-opacity="1" fill-rule="nonzero"/><path fill="#ffffff" d="M 2.28125 99.902344 C 1.386719 107.152344 0.910156 114.476562 0.621094 121.773438 C 0.40625 127.222656 0.457031 132.691406 0.726562 138.144531 C 0.921875 142.0625 0.984375 146.1875 2.542969 149.839844 C 3.136719 151.226562 5.632812 150.554688 5.445312 149.050781 C 3.390625 132.863281 4.648438 116.191406 4.390625 99.902344 C 4.371094 98.507812 2.445312 98.589844 2.28125 99.902344 " fill-opacity="1" fill-rule="nonzero"/><path fill="#ffffff" d="M 108.445312 222.136719 C 96.296875 227.742188 91.519531 241.085938 99.390625 252.378906 C 103.234375 257.898438 108.761719 262.816406 114.535156 266.242188 C 122.421875 270.917969 130.574219 275.199219 138.582031 279.660156 C 166.273438 295.09375 196.839844 314.453125 229.652344 303.816406 C 241.796875 299.878906 253.503906 293.972656 265.125 288.75 C 283.496094 280.488281 301.78125 272.019531 319.984375 263.402344 C 333.710938 256.90625 347.890625 250.765625 360.878906 242.859375 C 363.648438 241.175781 361.117188 236.8125 358.339844 238.503906 C 348.390625 244.558594 337.167969 249.078125 326.679688 254.082031 C 309.5 262.28125 292.230469 270.304688 274.90625 278.1875 C 261.316406 284.371094 247.730469 290.648438 233.875 296.21875 C 225.746094 299.488281 217.296875 301.75 208.453125 301.414062 C 193.007812 300.820312 178.480469 294.679688 164.949219 287.640625 C 156.8125 283.40625 148.808594 278.898438 140.757812 274.5 C 132.394531 269.925781 123.515625 265.785156 115.488281 260.65625 C 109.34375 256.730469 102.234375 250.859375 100.171875 243.5625 C 97.710938 234.882812 103.847656 229.058594 109.777344 223.867188 C 110.78125 222.988281 109.503906 221.652344 108.445312 222.136719 " fill-opacity="1" fill-rule="nonzero"/><path fill="#ffffff" d="M 353.59375 203.285156 C 355.269531 205.855469 358.339844 207.578125 360.613281 209.628906 C 363.167969 211.929688 365.585938 214.507812 367.164062 217.59375 C 368.824219 220.828125 369.644531 224.910156 368.578125 228.464844 C 367.4375 232.273438 364.027344 234.601562 360.886719 236.71875 C 349.191406 244.585938 335.65625 249.167969 323.40625 256.035156 C 320.972656 257.398438 323.113281 260.832031 325.558594 259.714844 C 333.355469 256.148438 341.332031 252.980469 349.101562 249.34375 C 356.253906 245.996094 364.398438 242.046875 369.867188 236.179688 C 374.882812 230.800781 375.046875 223.132812 371.914062 216.738281 C 370.140625 213.113281 367.339844 210.160156 364.210938 207.664062 C 361.507812 205.507812 358.007812 202.671875 354.550781 202.039062 C 353.875 201.917969 353.15625 202.617188 353.59375 203.285156 " fill-opacity="1" fill-rule="nonzero"/><path fill="#ffffff" d="M 105.613281 255.910156 C 104.628906 259.71875 106.671875 264.644531 107.6875 268.347656 C 108.824219 272.503906 110.050781 276.640625 111.230469 280.785156 C 112.582031 285.523438 113.855469 290.285156 115.136719 295.042969 C 116.152344 298.832031 117.121094 302.707031 119.507812 305.902344 C 123.730469 311.546875 130.882812 313.707031 137.617188 314.300781 C 146.914062 315.117188 155.867188 315.050781 165.027344 317.222656 C 168.011719 317.933594 169.222656 313.539062 166.292969 312.625 C 158.824219 310.300781 150.960938 309.925781 143.207031 309.542969 C 135.992188 309.191406 126.925781 308.675781 122.714844 301.769531 C 120.546875 298.214844 119.84375 293.6875 118.613281 289.746094 C 117.371094 285.753906 116.0625 281.777344 114.742188 277.808594 C 113.449219 273.90625 112.203125 269.988281 110.875 266.101562 C 109.742188 262.777344 108.925781 258.214844 106.382812 255.710938 C 106.136719 255.472656 105.703125 255.574219 105.613281 255.910156 " fill-opacity="1" fill-rule="nonzero"/><path fill="#ffffff" d="M 160.738281 292.148438 C 162.75 306.949219 165 322.585938 170.398438 336.578125 C 171.503906 339.445312 176.132812 338.273438 175.078125 335.285156 C 170.011719 320.9375 167.707031 305.949219 163.253906 291.453125 C 162.746094 289.796875 160.519531 290.527344 160.738281 292.148438 " fill-opacity="1" fill-rule="nonzero"/><path fill="#ffffff" d="M 241.183594 293.792969 C 237.941406 300.589844 235.972656 308.113281 233.75 315.292969 C 232.191406 320.320312 230.566406 325.335938 229.097656 330.390625 C 228.597656 332.109375 228.105469 333.832031 227.609375 335.550781 C 227.480469 335.992188 226.714844 338.921875 227.109375 337.535156 C 226.269531 340.492188 230.863281 341.753906 231.703125 338.800781 C 231.320312 340.144531 232.207031 337.273438 232.328125 336.855469 C 232.8125 335.132812 233.304688 333.410156 233.785156 331.6875 C 235.199219 326.617188 236.464844 321.5 237.792969 316.410156 C 239.6875 309.140625 241.96875 301.71875 242.804688 294.230469 C 242.898438 293.375 241.546875 293.035156 241.183594 293.792969 " fill-opacity="1" fill-rule="nonzero"/><path fill="#ffffff" d="M 169.070312 333.898438 C 173.238281 346.113281 188.265625 348.972656 199.558594 349.238281 C 209.042969 349.457031 226.3125 350.039062 231.199219 339.652344 C 232.09375 337.75 230.125 335.0625 228.035156 336.484375 C 224.207031 339.09375 220.941406 341.351562 216.308594 342.359375 C 211.28125 343.453125 206 343.445312 200.878906 343.390625 C 189.566406 343.265625 179.421875 340.789062 171.210938 332.648438 C 170.339844 331.789062 168.640625 332.648438 169.070312 333.898438 " fill-opacity="1" fill-rule="nonzero"/><path fill="#ffffff" d="M 297.710938 269.984375 C 294.757812 275.875 293.066406 282.535156 291.136719 288.804688 C 289.777344 293.222656 288.355469 297.625 287.074219 302.066406 C 286.652344 303.53125 286.246094 305 285.828125 306.460938 C 285.710938 306.882812 284.984375 309.71875 285.359375 308.375 C 284.53125 311.335938 289.125 312.601562 289.953125 309.644531 C 289.585938 310.953125 290.378906 308.347656 290.503906 307.921875 C 290.941406 306.410156 291.347656 304.882812 291.761719 303.363281 C 292.976562 298.902344 294.050781 294.402344 295.179688 289.921875 C 296.785156 283.554688 298.789062 276.996094 299.332031 270.425781 C 299.398438 269.566406 298.089844 269.230469 297.710938 269.984375 " fill-opacity="1" fill-rule="nonzero"/><path fill="#ffffff" d="M 236.015625 317.394531 C 240.742188 316.195312 245.949219 317.789062 250.585938 318.753906 C 255.304688 319.742188 259.722656 320.386719 264.5625 320.140625 C 272.921875 319.71875 286.042969 318.171875 289.683594 309.179688 C 290.464844 307.253906 287.886719 305.585938 286.285156 306.566406 C 284.316406 307.765625 282.699219 309.378906 280.6875 310.515625 C 278.523438 311.734375 276.195312 312.527344 273.785156 313.09375 C 269.113281 314.199219 263.96875 314.644531 259.167969 314.339844 C 251.785156 313.871094 240.859375 308.957031 234.765625 315.25 C 233.867188 316.171875 234.769531 317.710938 236.015625 317.394531 " fill-opacity="1" fill-rule="nonzero"/><path fill="#ffffff" d="M 354.339844 244.875 C 351.390625 250.769531 349.699219 257.421875 347.765625 263.699219 C 346.40625 268.113281 344.984375 272.519531 343.707031 276.960938 C 343.285156 278.425781 342.878906 279.890625 342.460938 281.355469 C 342.34375 281.777344 341.617188 284.609375 341.992188 283.265625 C 341.164062 286.226562 345.757812 287.492188 346.585938 284.535156 C 346.21875 285.84375 347.011719 283.238281 347.132812 282.8125 C 347.570312 281.296875 347.980469 279.773438 348.394531 278.253906 C 349.609375 273.792969 350.679688 269.292969 351.808594 264.8125 C 353.414062 258.445312 355.421875 251.886719 355.964844 245.3125 C 356.03125 244.460938 354.71875 244.117188 354.339844 244.875 " fill-opacity="1" fill-rule="nonzero"/><path fill="#ffffff" d="M 292.644531 292.289062 C 297.371094 291.085938 302.582031 292.679688 307.21875 293.644531 C 311.9375 294.632812 316.355469 295.277344 321.195312 295.03125 C 329.554688 294.609375 342.675781 293.0625 346.316406 284.070312 C 347.09375 282.144531 344.519531 280.480469 342.917969 281.457031 C 340.953125 282.65625 339.328125 284.269531 337.316406 285.40625 C 335.152344 286.625 332.824219 287.417969 330.417969 287.984375 C 325.742188 289.089844 320.597656 289.535156 315.800781 289.234375 C 308.417969 288.761719 297.492188 283.847656 291.394531 290.140625 C 290.496094 291.066406 291.398438 292.601562 292.644531 292.289062 " fill-opacity="1" fill-rule="nonzero"/><path fill="#ffffff" d="M 196.210938 202.820312 C 194.304688 203.054688 194.40625 205.832031 194.285156 207.253906 C 193.921875 211.394531 194.398438 215.660156 193.523438 219.742188 C 193.214844 221.179688 195.34375 221.789062 195.730469 220.351562 C 196.523438 217.449219 196.613281 214.457031 196.621094 211.46875 C 196.621094 210.640625 195.871094 204.652344 196.578125 204.1875 C 197.128906 203.832031 196.988281 202.726562 196.210938 202.820312 " fill-opacity="1" fill-rule="nonzero"/><path fill="#ffffff" d="M 214.625 203.113281 C 215.082031 209.1875 214.332031 215.253906 214.683594 221.316406 C 214.835938 224.003906 218.941406 224.050781 218.894531 221.316406 C 218.835938 217.394531 218.402344 213.414062 218.007812 209.519531 C 217.78125 207.296875 217.8125 204.230469 216.386719 202.382812 C 215.839844 201.683594 214.5625 202.265625 214.625 203.113281 " fill-opacity="1" fill-rule="nonzero"/><path fill="#ffffff" d="M 196.605469 203.726562 C 199.503906 202.921875 203.152344 201.660156 206.203125 201.804688 C 209.480469 201.960938 212.226562 204.488281 215.265625 205.265625 C 215.148438 204.371094 215.03125 203.472656 214.914062 202.574219 C 211.398438 204.535156 207.507812 206.910156 203.371094 205.746094 C 200.828125 205.027344 199.207031 202.867188 196.449219 202.734375 C 195.335938 202.683594 194.820312 204.136719 195.558594 204.886719 C 197.886719 207.246094 200.960938 209.554688 204.332031 209.894531 C 209.074219 210.371094 212.742188 207.871094 216.398438 205.117188 C 217.09375 204.597656 217.277344 203.910156 216.925781 203.105469 C 216.28125 201.617188 214.9375 201 213.488281 200.410156 C 211.480469 199.585938 208.828125 198.320312 206.613281 198.390625 C 202.894531 198.507812 199.148438 200.785156 196.199219 202.761719 C 195.71875 203.082031 196.003906 203.890625 196.605469 203.726562 " fill-opacity="1" fill-rule="nonzero"/><path fill="#ffffff" d="M 257.023438 176.414062 C 255.117188 176.644531 255.222656 179.425781 255.097656 180.84375 C 254.738281 184.984375 255.214844 189.25 254.335938 193.335938 C 254.03125 194.769531 256.15625 195.378906 256.546875 193.945312 C 257.335938 191.042969 257.429688 188.050781 257.433594 185.058594 C 257.433594 184.234375 256.683594 178.246094 257.394531 177.78125 C 257.945312 177.421875 257.804688 176.320312 257.023438 176.414062 " fill-opacity="1" fill-rule="nonzero"/><path fill="#ffffff" d="M 275.441406 176.707031 C 275.691406 183.480469 275.121094 190.347656 275.496094 197.109375 C 275.648438 199.800781 279.761719 199.84375 279.710938 197.109375 C 279.632812 192.84375 279.222656 188.539062 278.855469 184.289062 C 278.652344 181.941406 278.8125 177.890625 277.199219 175.976562 C 276.621094 175.289062 275.410156 175.851562 275.441406 176.707031 " fill-opacity="1" fill-rule="nonzero"/><path fill="#ffffff" d="M 257.417969 177.316406 C 260.320312 176.515625 263.96875 175.253906 267.019531 175.398438 C 270.296875 175.550781 273.042969 178.082031 276.082031 178.859375 C 275.964844 177.960938 275.847656 177.066406 275.730469 176.167969 C 272.210938 178.128906 268.320312 180.503906 264.1875 179.335938 C 261.640625 178.621094 260.023438 176.460938 257.265625 176.324219 C 256.148438 176.273438 255.636719 177.730469 256.375 178.476562 C 258.703125 180.839844 261.777344 183.144531 265.148438 183.484375 C 269.886719 183.960938 273.554688 181.460938 277.210938 178.710938 C 277.90625 178.1875 278.089844 177.503906 277.742188 176.699219 C 277.09375 175.207031 275.75 174.589844 274.304688 174 C 272.292969 173.179688 269.644531 171.914062 267.429688 171.984375 C 263.710938 172.097656 259.964844 174.375 257.011719 176.355469 C 256.53125 176.675781 256.820312 177.484375 257.417969 177.316406 " fill-opacity="1" fill-rule="nonzero"/><path fill="#ffffff" d="M 328.148438 239.402344 C 324.492188 239.996094 321.039062 239.519531 318.214844 236.90625 C 316.113281 234.964844 314.9375 232.238281 313.179688 230.007812 C 309.429688 225.257812 303.136719 224.554688 297.703125 226.792969 C 295.769531 227.589844 295.710938 231.066406 298.253906 230.847656 C 302.421875 230.484375 306.53125 228.820312 309.460938 232.882812 C 311.183594 235.277344 312.117188 238.03125 314.351562 240.0625 C 318.164062 243.523438 324.644531 244.152344 328.90625 241.203125 C 329.855469 240.546875 329.25 239.222656 328.148438 239.402344 " fill-opacity="1" fill-rule="nonzero"/><path fill="#ffffff" d="M 268.800781 261.410156 C 265.140625 262.003906 261.691406 261.527344 258.863281 258.914062 C 256.765625 256.96875 255.589844 254.246094 253.832031 252.015625 C 250.082031 247.265625 243.789062 246.5625 238.355469 248.800781 C 236.421875 249.597656 236.359375 253.074219 238.90625 252.851562 C 243.070312 252.492188 247.183594 250.828125 250.109375 254.890625 C 251.832031 257.28125 252.769531 260.039062 255 262.066406 C 258.816406 265.53125 265.292969 266.15625 269.558594 263.207031 C 270.503906 262.554688 269.902344 261.230469 268.800781 261.410156 " fill-opacity="1" fill-rule="nonzero"/><path fill="#ffffff" d="M 14.828125 175.34375 C 13.273438 169.453125 11.265625 163.792969 9.183594 158.066406 C 8.128906 155.171875 7.101562 152.253906 6.316406 149.269531 C 5.535156 146.300781 5.480469 143.265625 4.835938 140.289062 C 4.457031 138.535156 1.6875 138.542969 1.300781 140.289062 C 0.0234375 146.058594 2.78125 152.460938 5.046875 157.664062 C 7.726562 163.824219 10.410156 169.96875 13.738281 175.804688 C 14.074219 176.390625 15 175.996094 14.828125 175.34375 " fill-opacity="1" fill-rule="nonzero"/><path fill="#ffffff" d="M 12.441406 145.074219 C 10.957031 146.144531 11.523438 149.984375 11.519531 151.535156 C 11.507812 155.859375 11.472656 160.183594 11.394531 164.511719 C 11.277344 171.488281 9.316406 181.992188 14.644531 187.605469 C 16.046875 189.085938 18.214844 187.519531 17.859375 185.734375 C 17.570312 184.273438 16.808594 182.980469 16.308594 181.582031 C 15.503906 179.351562 15.308594 177.359375 15.324219 175.011719 C 15.359375 170.882812 15.25 166.761719 15.085938 162.636719 C 14.929688 158.703125 14.765625 154.769531 14.539062 150.839844 C 14.460938 149.511719 14.71875 145.929688 13.351562 145.074219 C 13.097656 144.917969 12.691406 144.898438 12.441406 145.074219 " fill-opacity="1" fill-rule="nonzero"/><path fill="#ffffff" d="M 48.257812 205.425781 C 47.457031 209.410156 47.421875 213.492188 47.210938 217.539062 C 47.003906 221.523438 46.246094 226.03125 47.242188 229.929688 C 47.707031 231.761719 50.480469 231.765625 50.949219 229.929688 C 51.945312 226.023438 51.1875 221.535156 50.980469 217.539062 C 50.765625 213.492188 50.734375 209.410156 49.933594 205.425781 C 49.765625 204.597656 48.421875 204.597656 48.257812 205.425781 " fill-opacity="1" fill-rule="nonzero"/><path fill="#ffffff" d="M 199.753906 60.367188 C 198.433594 63.261719 197.851562 66.605469 197 69.664062 C 195.933594 73.480469 194.792969 77.277344 193.621094 81.0625 C 192.679688 84.09375 191.742188 87.078125 191.046875 90.152344 C 190.894531 90.820312 190.601562 91.371094 190.378906 92.054688 C 190.25 92.460938 189.703125 95.035156 190.230469 93.257812 C 189.609375 95.351562 192.878906 96.25 193.496094 94.160156 C 192.980469 95.914062 193.910156 93.425781 194.007812 93.039062 C 194.1875 92.3125 194.265625 91.75 194.496094 91.085938 C 195.539062 88.113281 196.277344 85.082031 197.007812 81.996094 C 197.921875 78.136719 198.804688 74.269531 199.609375 70.386719 C 200.238281 67.339844 201.214844 63.828125 200.945312 60.691406 C 200.902344 60.125 200.042969 59.730469 199.753906 60.367188 " fill-opacity="1" fill-rule="nonzero"/><path fill="#ffffff" d="M 191.945312 96.144531 C 194.636719 94.8125 197.070312 93.871094 199.890625 95.511719 C 202.265625 96.894531 203.78125 99.179688 205.265625 101.417969 C 207.878906 105.363281 210.335938 109.398438 212.542969 113.585938 C 214.695312 117.691406 216.609375 121.929688 218.960938 125.925781 C 219.972656 127.648438 221.21875 129.300781 222.027344 131.136719 C 223.195312 133.800781 222.453125 135.503906 221.71875 138.082031 C 221.203125 139.902344 223.160156 141.0625 224.679688 140.359375 C 229.570312 138.101562 227.898438 131.1875 225.941406 127.488281 C 222.617188 121.199219 219.046875 114.902344 215.457031 108.761719 C 210.605469 100.46875 201.382812 84.246094 190.835938 94.703125 C 190.070312 95.464844 191.039062 96.59375 191.945312 96.144531 " fill-opacity="1" fill-rule="nonzero"/><path fill="#ffffff" d="M 233.507812 110.496094 C 231.304688 114.660156 229.878906 119.234375 228.214844 123.632812 C 226.570312 127.984375 224.074219 132.628906 223.59375 137.273438 C 223.40625 139.113281 226.078125 139.597656 226.921875 138.175781 C 229.171875 134.378906 229.855469 129.40625 231.046875 125.175781 C 232.363281 120.503906 233.992188 115.8125 234.71875 111.011719 C 234.824219 110.324219 233.886719 109.773438 233.507812 110.496094 " fill-opacity="1" fill-rule="nonzero"/><path fill="#ffffff" d="M 222.125 140.0625 C 222.957031 142.1875 224.34375 144.125 225.570312 146.039062 C 227.628906 149.261719 229.246094 152.984375 231.628906 155.96875 C 232.835938 157.480469 235.183594 155.832031 234.730469 154.164062 C 233.746094 150.546875 230.5625 147.277344 228.265625 144.40625 C 226.792969 142.566406 225.242188 140.53125 223.300781 139.15625 C 222.753906 138.769531 221.871094 139.421875 222.125 140.0625 " fill-opacity="1" fill-rule="nonzero"/></svg>