<svg xmlns="http://www.w3.org/2000/svg" xmlns:xlink="http://www.w3.org/1999/xlink" width="500" zoomAndPan="magnify" viewBox="0 0 375 374.999991" height="500" preserveAspectRatio="xMidYMid meet" version="1.0"><defs><g/></defs><g fill="#b99b6f" fill-opacity="1"><g transform="translate(33.64383, 190.766193)"><g><path d="M 3.121094 0.0898438 L 3.71875 0 L 4.890625 0.0585938 L 5.550781 -0.03125 L 6.511719 0.03125 L 7.351562 -0.328125 L 7.710938 -0.871094 L 7.621094 -4.019531 L 7.710938 -4.949219 L 7.679688 -5.578125 L 7.738281 -6.660156 L 7.679688 -7.320312 L 7.679688 -8.488281 L 7.949219 -8.761719 L 8.25 -8.640625 L 8.730469 -8.25 L 9.089844 -7.800781 L 10.320312 -6.570312 L 10.710938 -6.089844 L 11.519531 -5.308594 L 12.148438 -4.859375 L 12.808594 -4.828125 L 13.410156 -5.28125 L 13.828125 -5.730469 L 14.191406 -6.089844 L 15.03125 -7.078125 L 15.449219 -7.378906 L 16.679688 -8.640625 L 17.070312 -8.820312 L 17.308594 -8.371094 L 17.25 -6.71875 L 17.339844 -5.519531 L 17.28125 -4.351562 L 17.339844 -3.238281 L 17.28125 -2.699219 L 17.339844 -1.351562 L 17.339844 -0.898438 L 17.578125 -0.210938 L 18.210938 -0.03125 L 21.839844 0.0898438 L 22.46875 -0.238281 L 22.828125 -1.109375 L 22.738281 -2.671875 L 22.800781 -3.269531 L 22.738281 -12.269531 L 22.800781 -12.929688 L 22.769531 -15.898438 L 22.800781 -16.46875 L 22.738281 -17.761719 L 22.769531 -18.269531 L 22.738281 -19.5 L 22.800781 -20.070312 L 22.441406 -20.699219 L 21.808594 -21.03125 L 20.941406 -20.761719 L 20.308594 -20.371094 L 19.050781 -19.050781 L 18.660156 -18.570312 L 18.300781 -18.238281 L 17.878906 -17.699219 L 15.238281 -15 L 14.851562 -14.488281 L 13.019531 -12.628906 L 12.480469 -12.269531 L 11.851562 -12.511719 L 11.488281 -13.019531 L 11.070312 -13.441406 L 10.53125 -14.128906 L 9.871094 -14.730469 L 7.140625 -17.761719 L 6.71875 -18.121094 L 5.941406 -19.050781 L 5.460938 -19.46875 L 4.679688 -20.28125 L 3.988281 -20.789062 L 3.148438 -21.03125 L 2.488281 -20.730469 L 2.160156 -20.101562 L 2.25 -18.269531 L 2.160156 -17.101562 L 2.21875 -16.558594 L 2.191406 -11.761719 L 2.25 -11.160156 L 2.160156 -8.128906 L 2.21875 -7.558594 L 2.191406 -0.929688 L 2.519531 -0.300781 Z M 3.121094 0.0898438 "/></g></g></g><g fill="#b99b6f" fill-opacity="1"><g transform="translate(67.663806, 190.766193)"><g><path d="M 17.699219 0.0585938 L 18.839844 -0.03125 L 19.410156 0.03125 L 20.339844 0 L 21.179688 -0.148438 L 21.269531 -0.871094 L 21.058594 -1.558594 L 20.609375 -2.671875 L 19.800781 -4.230469 L 19.378906 -5.339844 L 18.78125 -6.421875 L 17.640625 -9.148438 L 17.339844 -9.601562 L 17.039062 -10.171875 L 16.859375 -10.828125 L 16.589844 -11.28125 L 16.410156 -11.761719 L 15.78125 -12.871094 L 15.570312 -13.5 L 13.589844 -17.671875 L 13.410156 -18.269531 L 13.078125 -18.808594 L 12.898438 -19.351562 L 12.328125 -20.398438 L 11.820312 -20.941406 L 10.828125 -21.238281 L 9.871094 -20.910156 L 9.328125 -20.398438 L 9.058594 -19.890625 L 8.851562 -19.289062 L 8.578125 -18.871094 L 7.378906 -16.109375 L 7.050781 -15.660156 L 6.898438 -15.058594 L 6.570312 -14.488281 L 6.390625 -13.949219 L 3.328125 -7.53125 L 3.148438 -6.871094 L 2.851562 -6.421875 L 2.640625 -5.820312 L 2.101562 -4.859375 L 1.648438 -3.660156 L 1.320312 -3.238281 L 1.171875 -2.699219 L 0.570312 -1.5 L 0.390625 -0.898438 L 0.539062 -0.148438 L 1.140625 0.03125 L 2.308594 -0.03125 L 2.910156 0.03125 L 4.589844 -0.03125 L 5.28125 -0.238281 L 5.851562 -0.78125 L 6.390625 -1.769531 L 6.960938 -2.339844 L 7.589844 -2.671875 L 8.160156 -2.578125 L 9.421875 -2.699219 L 9.960938 -2.609375 L 12.898438 -2.640625 L 13.441406 -2.578125 L 14.101562 -2.671875 L 14.761719 -2.339844 L 15.328125 -1.859375 L 15.601562 -1.289062 L 15.78125 -0.75 L 16.378906 -0.300781 L 17.070312 0 Z M 10.890625 -7.410156 L 10.289062 -7.53125 L 9.601562 -7.46875 L 9.121094 -7.679688 L 9.089844 -8.25 L 10.5 -11.488281 L 10.828125 -11.761719 L 11.25 -11.519531 L 12.660156 -8.21875 L 12.539062 -7.679688 L 12.089844 -7.441406 Z M 10.890625 -7.410156 "/></g></g></g><g fill="#b99b6f" fill-opacity="1"><g transform="translate(98.383786, 190.766193)"><g><path d="M 10.441406 0.238281 L 11.941406 0.359375 L 14.039062 0.210938 L 15.808594 -0.148438 L 16.351562 -0.449219 L 16.980469 -0.660156 L 17.488281 -0.898438 L 18.960938 -1.949219 L 19.800781 -2.789062 L 20.488281 -3.691406 L 21.121094 -4.769531 L 21.898438 -7.050781 L 21.71875 -7.589844 L 21.121094 -7.980469 L 19.441406 -7.859375 L 18.839844 -7.949219 L 18.238281 -7.921875 L 17.640625 -7.949219 L 16.949219 -7.589844 L 16.46875 -7.109375 L 16.171875 -6.539062 L 15.480469 -5.761719 L 15 -5.339844 L 14.550781 -5.160156 L 13.5 -4.589844 L 11.910156 -4.5 L 11.039062 -4.589844 L 9.960938 -4.980469 L 8.910156 -5.519531 L 8.039062 -6.300781 L 7.378906 -7.351562 L 7.171875 -7.949219 L 6.960938 -8.371094 L 6.808594 -8.910156 L 6.71875 -9.570312 L 6.71875 -11.398438 L 6.929688 -12.601562 L 7.378906 -13.679688 L 7.679688 -14.25 L 8.398438 -15.089844 L 9.121094 -15.660156 L 9.929688 -16.109375 L 11.941406 -16.378906 L 13.230469 -16.320312 L 14.160156 -16.050781 L 14.699219 -15.839844 L 15.121094 -15.511719 L 15.988281 -14.640625 L 16.320312 -14.191406 L 16.890625 -13.621094 L 17.578125 -13.289062 L 18.121094 -13.351562 L 18.75 -13.320312 L 19.351562 -13.351562 L 20.191406 -13.261719 L 21.089844 -13.351562 L 21.601562 -13.589844 L 21.808594 -14.191406 L 21.628906 -14.851562 L 21.421875 -15.390625 L 21.238281 -16.019531 L 20.910156 -16.5 L 20.640625 -16.980469 L 20.21875 -17.488281 L 19.890625 -18.058594 L 19.050781 -18.929688 L 17.011719 -20.21875 L 14.128906 -21.179688 L 13.558594 -21.210938 L 12.960938 -21.300781 L 11.101562 -21.328125 L 8.191406 -20.761719 L 5.96875 -19.710938 L 5.101562 -19.050781 L 3.808594 -17.878906 L 3 -16.859375 L 2.429688 -15.988281 L 1.679688 -14.308594 L 1.378906 -13.078125 L 1.078125 -10.5 L 1.261719 -8.308594 L 1.679688 -6.601562 L 2.96875 -3.988281 L 4.199219 -2.671875 L 5.550781 -1.5 L 6.839844 -0.808594 L 8.191406 -0.238281 L 8.730469 -0.121094 L 9.328125 0.0898438 L 9.871094 0.210938 Z M 10.441406 0.238281 "/></g></g></g><g fill="#b99b6f" fill-opacity="1"><g transform="translate(130.213763, 190.766193)"><g><path d="M 17.699219 0.0585938 L 18.839844 -0.03125 L 19.410156 0.03125 L 20.339844 0 L 21.179688 -0.148438 L 21.269531 -0.871094 L 21.058594 -1.558594 L 20.609375 -2.671875 L 19.800781 -4.230469 L 19.378906 -5.339844 L 18.78125 -6.421875 L 17.640625 -9.148438 L 17.339844 -9.601562 L 17.039062 -10.171875 L 16.859375 -10.828125 L 16.589844 -11.28125 L 16.410156 -11.761719 L 15.78125 -12.871094 L 15.570312 -13.5 L 13.589844 -17.671875 L 13.410156 -18.269531 L 13.078125 -18.808594 L 12.898438 -19.351562 L 12.328125 -20.398438 L 11.820312 -20.941406 L 10.828125 -21.238281 L 9.871094 -20.910156 L 9.328125 -20.398438 L 9.058594 -19.890625 L 8.851562 -19.289062 L 8.578125 -18.871094 L 7.378906 -16.109375 L 7.050781 -15.660156 L 6.898438 -15.058594 L 6.570312 -14.488281 L 6.390625 -13.949219 L 3.328125 -7.53125 L 3.148438 -6.871094 L 2.851562 -6.421875 L 2.640625 -5.820312 L 2.101562 -4.859375 L 1.648438 -3.660156 L 1.320312 -3.238281 L 1.171875 -2.699219 L 0.570312 -1.5 L 0.390625 -0.898438 L 0.539062 -0.148438 L 1.140625 0.03125 L 2.308594 -0.03125 L 2.910156 0.03125 L 4.589844 -0.03125 L 5.28125 -0.238281 L 5.851562 -0.78125 L 6.390625 -1.769531 L 6.960938 -2.339844 L 7.589844 -2.671875 L 8.160156 -2.578125 L 9.421875 -2.699219 L 9.960938 -2.609375 L 12.898438 -2.640625 L 13.441406 -2.578125 L 14.101562 -2.671875 L 14.761719 -2.339844 L 15.328125 -1.859375 L 15.601562 -1.289062 L 15.78125 -0.75 L 16.378906 -0.300781 L 17.070312 0 Z M 10.890625 -7.410156 L 10.289062 -7.53125 L 9.601562 -7.46875 L 9.121094 -7.679688 L 9.089844 -8.25 L 10.5 -11.488281 L 10.828125 -11.761719 L 11.25 -11.519531 L 12.660156 -8.21875 L 12.539062 -7.679688 L 12.089844 -7.441406 Z M 10.890625 -7.410156 "/></g></g></g><g fill="#b99b6f" fill-opacity="1"><g transform="translate(160.933743, 190.766193)"><g><path d="M 2.25 -1.230469 L 2.550781 -0.300781 L 3.421875 0.0898438 L 4.019531 0 L 4.980469 0.0898438 L 5.460938 0.03125 L 6.359375 0.03125 L 7.320312 -0.269531 L 7.589844 -1.140625 L 7.589844 -2.160156 L 7.648438 -2.699219 L 7.558594 -3.328125 L 7.621094 -5.25 L 7.890625 -5.851562 L 8.460938 -6.179688 L 10.199219 -5.941406 L 10.800781 -5.429688 L 11.160156 -4.828125 L 11.398438 -4.289062 L 12.03125 -3.390625 L 12.601562 -2.308594 L 12.929688 -1.859375 L 13.171875 -1.261719 L 13.5 -0.75 L 14.160156 -0.210938 L 15.179688 0.0585938 L 17.550781 0.03125 L 18.121094 0.0898438 L 19.109375 0.0585938 L 19.679688 -0.210938 L 19.859375 -0.871094 L 19.53125 -1.53125 L 19.171875 -1.949219 L 18.929688 -2.519531 L 17.910156 -4.050781 L 17.640625 -4.589844 L 16.679688 -6.148438 L 16.320312 -6.601562 L 16.289062 -7.320312 L 16.558594 -7.980469 L 16.980469 -8.429688 L 17.398438 -8.789062 L 18.570312 -10.890625 L 18.960938 -12.628906 L 18.898438 -14.519531 L 18.808594 -15.121094 L 18.269531 -16.828125 L 18.03125 -17.339844 L 17.699219 -17.820312 L 15.988281 -19.621094 L 14.941406 -20.191406 L 13.800781 -20.578125 L 12.089844 -20.96875 L 11.128906 -21 L 10.261719 -20.941406 L 8.460938 -20.941406 L 7.859375 -21.058594 L 7.261719 -21.058594 L 6.71875 -20.910156 L 6.121094 -20.910156 L 5.519531 -21.03125 L 4.859375 -21.058594 L 3.089844 -20.910156 L 2.550781 -20.609375 L 2.191406 -19.769531 L 2.21875 -12.898438 L 2.28125 -12.300781 L 2.191406 -11.101562 L 2.21875 -10.441406 L 2.21875 -9.839844 L 2.28125 -9.269531 L 2.21875 -8.699219 L 2.191406 -6.269531 L 2.25 -5.671875 Z M 8.460938 -10.980469 L 7.859375 -11.308594 L 7.621094 -11.789062 L 7.621094 -13.589844 L 7.558594 -14.101562 L 7.621094 -15.359375 L 7.890625 -15.929688 L 8.519531 -16.171875 L 9.121094 -16.140625 L 10.320312 -16.261719 L 11.160156 -16.078125 L 11.941406 -16.019531 L 12.511719 -15.871094 L 13.261719 -14.941406 L 13.441406 -14.460938 L 13.558594 -13.679688 L 13.46875 -12.78125 L 13.199219 -12.179688 L 12.871094 -11.730469 L 12.539062 -11.460938 L 12 -11.21875 L 11.128906 -11.011719 L 10.558594 -10.980469 L 9.121094 -11.039062 Z M 8.460938 -10.980469 "/></g></g></g><g fill="#b99b6f" fill-opacity="1"><g transform="translate(190.693723, 190.766193)"><g><path d="M 12.03125 0.390625 L 14.699219 0.121094 L 15.839844 -0.238281 L 18.511719 -1.441406 L 20.609375 -3.449219 L 21 -3.988281 L 22.171875 -6.058594 L 22.378906 -6.628906 L 22.46875 -7.230469 L 22.648438 -7.710938 L 22.769531 -8.371094 L 22.921875 -10.46875 L 22.769531 -12.539062 L 22.53125 -13.648438 L 22.289062 -14.28125 L 22.140625 -14.96875 L 21.601562 -15.960938 L 21.390625 -16.5 L 21 -17.011719 L 20.640625 -17.371094 L 20.25 -17.910156 L 18.960938 -19.078125 L 17.429688 -20.039062 L 13.5 -21.269531 L 12.089844 -21.300781 L 9.988281 -21.179688 L 9.390625 -21.058594 L 8.789062 -20.878906 L 8.25 -20.640625 L 7.109375 -20.339844 L 5.578125 -19.378906 L 5.160156 -19.019531 L 4.199219 -18.359375 L 3.390625 -17.460938 L 2.371094 -15.960938 L 2.101562 -15.449219 L 1.53125 -13.800781 L 1.289062 -12.511719 L 1.171875 -9.03125 L 1.5 -7.140625 L 1.949219 -6.121094 L 2.128906 -5.488281 L 2.429688 -4.949219 L 3.839844 -3.03125 L 4.679688 -2.21875 L 5.070312 -1.769531 L 7.109375 -0.691406 L 7.679688 -0.449219 L 10.230469 0.300781 Z M 11.191406 -4.890625 L 10.589844 -5.101562 L 10.050781 -5.160156 L 9.03125 -5.699219 L 8.101562 -6.511719 L 7.800781 -6.929688 L 7.410156 -7.351562 L 6.839844 -9.03125 L 6.691406 -10.53125 L 6.71875 -11.429688 L 6.929688 -12.539062 L 7.109375 -13.078125 L 7.46875 -13.5 L 7.738281 -14.011719 L 8.128906 -14.488281 L 8.578125 -14.878906 L 9.449219 -15.480469 L 9.988281 -15.75 L 10.621094 -15.898438 L 12 -16.019531 L 13.441406 -15.929688 L 15.03125 -15.238281 L 15.960938 -14.550781 L 16.648438 -13.53125 L 16.890625 -12.988281 L 17.070312 -12.390625 L 17.28125 -11.851562 L 17.398438 -10.558594 L 17.21875 -9.058594 L 16.949219 -7.828125 L 16.621094 -7.378906 L 16.351562 -6.929688 L 15.988281 -6.390625 L 15.058594 -5.671875 L 14.519531 -5.429688 L 14.039062 -5.160156 L 13.5 -5.101562 L 12.929688 -4.949219 Z M 11.191406 -4.890625 "/></g></g></g><g fill="#b99b6f" fill-opacity="1"><g transform="translate(223.693698, 190.766193)"><g><path d="M 17.699219 -0.511719 L 18.511719 -0.03125 L 19.351562 0.0585938 L 20.011719 -0.148438 L 20.308594 -0.75 L 20.371094 -11.699219 L 20.28125 -12.210938 L 20.28125 -15.179688 L 20.371094 -15.898438 L 20.28125 -20.070312 L 19.980469 -20.671875 L 19.378906 -21 L 15.660156 -20.96875 L 15.089844 -20.640625 L 14.761719 -20.011719 L 14.730469 -19.378906 L 14.820312 -18.898438 L 14.730469 -17.640625 L 14.789062 -16.980469 L 14.730469 -11.609375 L 14.550781 -11.101562 L 14.101562 -11.308594 L 11.96875 -13.441406 L 11.128906 -14.101562 L 5.21875 -20.070312 L 4.769531 -20.429688 L 4.078125 -20.789062 L 3.179688 -21 L 2.488281 -20.699219 L 2.21875 -20.128906 L 2.21875 -11.039062 L 2.191406 -10.53125 L 2.25 -9.300781 L 2.160156 -8.789062 L 2.21875 -3.871094 L 2.160156 -3.300781 L 2.21875 -0.78125 L 2.488281 -0.210938 L 3.121094 0 L 4.351562 0.0585938 L 5.011719 0 L 6.179688 0.0898438 L 6.808594 0.0585938 L 7.410156 -0.238281 L 7.710938 -1.171875 L 7.738281 -8.761719 L 7.800781 -9.359375 L 8.011719 -9.871094 L 8.398438 -9.71875 L 8.789062 -9.210938 L 10.921875 -7.171875 L 11.308594 -6.71875 L 11.820312 -6.390625 L 16.46875 -1.769531 L 17.25 -0.898438 Z M 17.699219 -0.511719 "/></g></g></g><g fill="#b99b6f" fill-opacity="1"><g transform="translate(255.253663, 190.766193)"><g><path d="M 12.03125 0.390625 L 14.699219 0.121094 L 15.839844 -0.238281 L 18.511719 -1.441406 L 20.609375 -3.449219 L 21 -3.988281 L 22.171875 -6.058594 L 22.378906 -6.628906 L 22.46875 -7.230469 L 22.648438 -7.710938 L 22.769531 -8.371094 L 22.921875 -10.46875 L 22.769531 -12.539062 L 22.53125 -13.648438 L 22.289062 -14.28125 L 22.140625 -14.96875 L 21.601562 -15.960938 L 21.390625 -16.5 L 21 -17.011719 L 20.640625 -17.371094 L 20.25 -17.910156 L 18.960938 -19.078125 L 17.429688 -20.039062 L 13.5 -21.269531 L 12.089844 -21.300781 L 9.988281 -21.179688 L 9.390625 -21.058594 L 8.789062 -20.878906 L 8.25 -20.640625 L 7.109375 -20.339844 L 5.578125 -19.378906 L 5.160156 -19.019531 L 4.199219 -18.359375 L 3.390625 -17.460938 L 2.371094 -15.960938 L 2.101562 -15.449219 L 1.53125 -13.800781 L 1.289062 -12.511719 L 1.171875 -9.03125 L 1.5 -7.140625 L 1.949219 -6.121094 L 2.128906 -5.488281 L 2.429688 -4.949219 L 3.839844 -3.03125 L 4.679688 -2.21875 L 5.070312 -1.769531 L 7.109375 -0.691406 L 7.679688 -0.449219 L 10.230469 0.300781 Z M 11.191406 -4.890625 L 10.589844 -5.101562 L 10.050781 -5.160156 L 9.03125 -5.699219 L 8.101562 -6.511719 L 7.800781 -6.929688 L 7.410156 -7.351562 L 6.839844 -9.03125 L 6.691406 -10.53125 L 6.71875 -11.429688 L 6.929688 -12.539062 L 7.109375 -13.078125 L 7.46875 -13.5 L 7.738281 -14.011719 L 8.128906 -14.488281 L 8.578125 -14.878906 L 9.449219 -15.480469 L 9.988281 -15.75 L 10.621094 -15.898438 L 12 -16.019531 L 13.441406 -15.929688 L 15.03125 -15.238281 L 15.960938 -14.550781 L 16.648438 -13.53125 L 16.890625 -12.988281 L 17.070312 -12.390625 L 17.28125 -11.851562 L 17.398438 -10.558594 L 17.21875 -9.058594 L 16.949219 -7.828125 L 16.621094 -7.378906 L 16.351562 -6.929688 L 15.988281 -6.390625 L 15.058594 -5.671875 L 14.519531 -5.429688 L 14.039062 -5.160156 L 13.5 -5.101562 L 12.929688 -4.949219 Z M 11.191406 -4.890625 "/></g></g></g><g fill="#b99b6f" fill-opacity="1"><g transform="translate(288.253637, 190.766193)"><g><path d="M 3.121094 0.0898438 L 3.71875 0 L 4.890625 0.0585938 L 5.550781 -0.03125 L 6.511719 0.03125 L 7.351562 -0.328125 L 7.710938 -0.871094 L 7.621094 -4.019531 L 7.710938 -4.949219 L 7.679688 -5.578125 L 7.738281 -6.660156 L 7.679688 -7.320312 L 7.679688 -8.488281 L 7.949219 -8.761719 L 8.25 -8.640625 L 8.730469 -8.25 L 9.089844 -7.800781 L 10.320312 -6.570312 L 10.710938 -6.089844 L 11.519531 -5.308594 L 12.148438 -4.859375 L 12.808594 -4.828125 L 13.410156 -5.28125 L 13.828125 -5.730469 L 14.191406 -6.089844 L 15.03125 -7.078125 L 15.449219 -7.378906 L 16.679688 -8.640625 L 17.070312 -8.820312 L 17.308594 -8.371094 L 17.25 -6.71875 L 17.339844 -5.519531 L 17.28125 -4.351562 L 17.339844 -3.238281 L 17.28125 -2.699219 L 17.339844 -1.351562 L 17.339844 -0.898438 L 17.578125 -0.210938 L 18.210938 -0.03125 L 21.839844 0.0898438 L 22.46875 -0.238281 L 22.828125 -1.109375 L 22.738281 -2.671875 L 22.800781 -3.269531 L 22.738281 -12.269531 L 22.800781 -12.929688 L 22.769531 -15.898438 L 22.800781 -16.46875 L 22.738281 -17.761719 L 22.769531 -18.269531 L 22.738281 -19.5 L 22.800781 -20.070312 L 22.441406 -20.699219 L 21.808594 -21.03125 L 20.941406 -20.761719 L 20.308594 -20.371094 L 19.050781 -19.050781 L 18.660156 -18.570312 L 18.300781 -18.238281 L 17.878906 -17.699219 L 15.238281 -15 L 14.851562 -14.488281 L 13.019531 -12.628906 L 12.480469 -12.269531 L 11.851562 -12.511719 L 11.488281 -13.019531 L 11.070312 -13.441406 L 10.53125 -14.128906 L 9.871094 -14.730469 L 7.140625 -17.761719 L 6.71875 -18.121094 L 5.941406 -19.050781 L 5.460938 -19.46875 L 4.679688 -20.28125 L 3.988281 -20.789062 L 3.148438 -21.03125 L 2.488281 -20.730469 L 2.160156 -20.101562 L 2.25 -18.269531 L 2.160156 -17.101562 L 2.21875 -16.558594 L 2.191406 -11.761719 L 2.25 -11.160156 L 2.160156 -8.128906 L 2.21875 -7.558594 L 2.191406 -0.929688 L 2.519531 -0.300781 Z M 3.121094 0.0898438 "/></g></g></g><g fill="#b99b6f" fill-opacity="1"><g transform="translate(322.273601, 190.766193)"><g><path d="M 6.871094 -0.898438 L 7.109375 -0.238281 L 7.738281 0 L 8.339844 0.03125 L 8.878906 -0.03125 L 9.808594 0.03125 L 10.648438 -0.03125 L 11.25 0.03125 L 11.851562 -0.300781 L 12.089844 -0.929688 L 12.179688 -4.410156 L 12.121094 -5.011719 L 12.121094 -5.609375 L 12.210938 -6.148438 L 12.179688 -7.890625 L 12.359375 -8.761719 L 12.660156 -9.539062 L 16.46875 -15.808594 L 16.828125 -16.230469 L 18.75 -19.410156 L 19.078125 -20.160156 L 18.960938 -20.820312 L 18.421875 -20.941406 L 17.25 -20.96875 L 16.621094 -20.910156 L 16.019531 -21 L 14.851562 -20.96875 L 14.339844 -21 L 13.53125 -20.699219 L 12.988281 -20.191406 L 12.210938 -18.898438 L 11.851562 -18 L 11.191406 -17.039062 L 10.890625 -16.410156 L 10.589844 -15.898438 L 10.078125 -14.761719 L 9.691406 -14.25 L 9.359375 -14.25 L 9.03125 -14.820312 L 8.699219 -15.300781 L 7.800781 -16.980469 L 7.46875 -17.488281 L 6.058594 -20.128906 L 5.429688 -20.699219 L 4.738281 -20.96875 L 4.109375 -20.941406 L 3.601562 -21.058594 L 2.070312 -20.941406 L 0.691406 -21.03125 L 0.0898438 -20.730469 L 0 -20.070312 L 0.300781 -19.378906 L 1.589844 -17.25 L 1.921875 -16.828125 L 3.148438 -14.699219 L 3.871094 -13.738281 L 4.109375 -13.199219 L 6.421875 -9.539062 L 6.71875 -8.699219 L 6.871094 -7.890625 L 6.839844 -5.519531 L 6.898438 -4.921875 L 6.839844 -2.609375 L 6.898438 -2.039062 Z M 6.871094 -0.898438 "/></g></g></g></svg>